<?xml version="1.0" encoding="utf-8"?>
<!-- Generator: Adobe Illustrator 23.1.0, SVG Export Plug-In . SVG Version: 6.00 Build 0)  -->
<svg version="1.1" id="Vectorportal.com" xmlns="http://www.w3.org/2000/svg" xmlns:xlink="http://www.w3.org/1999/xlink" x="0px"
	 y="0px" viewBox="0 0 660 660" style="enable-background:new 0 0 660 660;" xml:space="preserve">
<style type="text/css">
	.st0{fill:#231F20;}
</style>
<g>
	<path d="M254.1,234.7l-1.7-1.6c-4.6-9.1-18.3-14.2-25.1-16c0,0,0-0.2,0-0.4c0.1,0,0.3,0,0.4,0c0.6,0.1,1.3,0.1,2,0.3
		c0.7,0.1,1.6,0.2,2.4,0.4c0.9,0.2,1.7,0.4,2.7,0.6c0.9,0.3,1.9,0.5,2.8,0.9c0.5,0.2,0.9,0.3,1.4,0.5l1.4,0.6
		c0.5,0.2,0.9,0.4,1.4,0.7c0.4,0.2,0.9,0.4,1.3,0.7c0.9,0.5,1.7,1,2.4,1.6c0.8,0.5,1.5,1.2,2.1,1.7c0.7,0.6,1.2,1.2,1.7,1.8
		c0.5,0.6,0.9,1.2,1.3,1.6c0.4,0.5,0.7,1,0.9,1.3c0.5,0.8,0.7,1.2,0.7,1.2s-0.2-0.5-0.7-1.2c-0.2-0.4-0.5-0.9-0.8-1.4
		c-0.4-0.5-0.7-1.1-1.2-1.7c-0.5-0.6-1-1.3-1.7-1.9c-0.6-0.6-1.3-1.3-2.1-1.9c-0.7-0.6-1.6-1.2-2.4-1.8c-0.4-0.3-0.9-0.5-1.3-0.8
		c-0.4-0.3-0.9-0.5-1.4-0.8l-1.4-0.7c-0.5-0.2-0.9-0.4-1.4-0.6c-0.9-0.4-1.9-0.7-2.8-1.1c-0.9-0.3-1.8-0.6-2.7-0.8
		c-0.9-0.2-1.7-0.4-2.5-0.6c-0.8-0.2-1.5-0.3-2.1-0.4c-0.6-0.1-1.2-0.2-1.7-0.2c-0.9-0.1-1.4-0.1-1.4-0.1l-0.1,0.9
		c-15.9-2.2-18.7,5.8-21.6,7.1c-3,1.4-10.4-0.9-12.7-5.7c0.4,7.7,12.7,12.7,12.7,12.7s0.8,7,3.7,9c2.9,2,16.1,5.2,25.6,0.8
		c-17.4,2.6-23.7-5.6-23.7-5.6l0.8-3.2c0,0,7.5,9,15.4,6.4c-7.2-0.5-12.3-4.6-13.2-7.6c-0.8-3,7.2-6.3,7.2-6.3s-0.5,2.6,0.9,6.6
		c1.7,4.7,6.5,7.9,13.3,5c5.6-2.4,3.9-9.9,3.9-9.9s8.5,4.5,8.8,5c0.3,0.5-0.6,0.8-2.6,4.7C244.9,234.1,254.1,234.7,254.1,234.7
		 M232.7,221.9c1.3,0,2.3,1,2.3,2.3c0,1.3-1,2.3-2.3,2.3c-1.3,0-2.3-1-2.3-2.3C230.4,223,231.5,221.9,232.7,221.9 M235.6,228.3
		c0,0.3-0.1,0.7-0.2,1.1c-0.1,0.4-0.3,0.9-0.6,1.4c-0.3,0.5-0.7,0.9-1.2,1.4c-0.2,0.2-0.5,0.4-0.8,0.6c-0.3,0.2-0.6,0.3-0.9,0.5
		c-0.3,0.1-0.6,0.3-1,0.4c-0.3,0.1-0.7,0.2-1,0.3c-0.4,0.1-0.7,0.1-1.1,0.2c-0.4,0-0.8,0-1.1,0c-0.4,0-0.8-0.1-1.1-0.2
		c-0.4-0.1-0.7-0.2-1.1-0.4c-0.7-0.3-1.3-0.7-1.8-1.2c-0.5-0.4-1-0.9-1.3-1.5c-0.4-0.5-0.7-1-0.9-1.5c-0.2-0.5-0.4-1-0.5-1.4
		c-0.1-0.4-0.2-0.8-0.2-1.1c0-0.3,0-0.6,0-0.7c0-0.2,0.1-0.2,0.1-0.2s0,0.1,0,0.3c0,0.2,0,0.4,0.1,0.7c0.1,0.3,0.2,0.6,0.4,1
		c0.2,0.4,0.4,0.8,0.7,1.2c0.3,0.4,0.6,0.9,1,1.3c0.4,0.4,0.8,0.9,1.3,1.3c0.5,0.4,1.1,0.7,1.7,1c0.3,0.1,0.6,0.2,0.9,0.3
		c0.3,0,0.6,0.1,1,0.1c0.3,0,0.7,0,1,0c0.3-0.1,0.6-0.1,1-0.2c0.3-0.1,0.7-0.2,1-0.3c0.3-0.1,0.6-0.2,0.9-0.3
		c0.3-0.1,0.6-0.3,0.8-0.4c0.2-0.2,0.5-0.3,0.7-0.5c0.4-0.4,0.9-0.7,1.2-1.1c0.6-0.8,1-1.6,1.1-2.2c0.2-0.6,0.2-0.9,0.2-0.9
		S235.6,227.7,235.6,228.3 M190.5,204.5c0.5-4.3,13.5-14.2,24.9-15.3c1.1,1.1,6.8,3.2,8,3.2s1.9-1.1,1.9-1.1l13.3,5.7v-1.6l12.6,7.3
		l1.1-1.6l4.8,2.9h2.1l0.9,8.6h-2.5c0,0-2.1-1.8-3.6-3c-1.5-1.1,0,3,0,3l-5.1-3.4c0,0-0.5,2.5-6.6-2.1c-6.2-4.6-28.8-6.2-29.5-7.1
		c-0.7-0.9-6.4-4.6-7.3-4.6c-0.9,0,1.6,2.5,2.3,2.7C203.5,197.9,190.5,204.5,190.5,204.5 M319.8,330.7c0.2,2.1-3.4-1.5-3.4-1.5
		s-5.7,1.2-10.2,0c-4.5-1.2-12.2-1.1-13.4-0.1c-1.2,1-13.4,2.2-14.8,1.5c-1.4-0.7-19.2-2.8-21.9-3c-14.5-0.8-12,2-12.6,1.8
		c-0.6-0.2,0.1-2.4,1.5-3.6c1.4-1.2,4,0,4,0c4.3,1.1,8.2-6.6,19.4-6.7c8.2,0,12.8,3.4,12.8,3.4c1.8-1.1,10.5-5,16.2-3.4
		c5.7,1.6,11.9,7.5,18,8c0.9-0.1,0.9-1.3,0.9-1.3S319.5,328.6,319.8,330.7 M310.4,336.7c-4,5.2-20.1,10.2-20.1,10.2
		c-6-1.5-12.5-2.5-19.5-0.9c-8.3-2.7-15.6-6.4-19.7-11.2C256.4,338.7,290.1,345.1,310.4,336.7 M261.2,289.9
		c-0.2-0.7,2.6-2.7,5.1-1.6c0.7,0.3,6.7,5.8,9.4,8.7c1.5,1.6,8.9,1.7,11.1-0.7c2.2-2.4,5.7-8.3,7.2-8c1.5,0.3,4.6,0,4.8,1.1
		c0.2,1.1-4.7,6.2-6.3,7c3.2,0.1,7.1-4.1,9.5-7l0.4-0.4c0,0,0.2-0.2,0.5-0.6c0.2-0.2,0.4-0.4,0.6-0.7c0.2-0.3,0.4-0.6,0.6-1
		c0.2-0.4,0.4-0.8,0.6-1.2c0.2-0.5,0.3-1,0.4-1.5c0-0.5,0.1-1.1,0.1-1.7c0-0.6-0.1-1.1-0.2-1.7c-0.1-0.6-0.3-1.1-0.5-1.7
		c-0.1-0.3-0.2-0.5-0.3-0.8c-0.1-0.3-0.3-0.5-0.4-0.8c-0.2-0.5-0.5-1-0.8-1.4c-0.3-0.4-0.5-0.9-0.8-1.2c-0.5-0.8-1-1.4-1.3-1.8
		c-0.3-0.4-0.5-0.7-0.5-0.7s0.2,0.2,0.6,0.6c0.4,0.4,0.9,1,1.5,1.7c1.2,1.4,2.7,3.5,3.5,5.9c0.2,0.6,0.4,1.2,0.4,1.9
		c0.1,0.6,0.1,1.3,0.1,1.9c-0.1,0.6-0.1,1.2-0.3,1.8c-0.2,0.5-0.3,1.1-0.5,1.5c-0.2,0.4-0.4,0.8-0.6,1.2c-0.2,0.3-0.4,0.6-0.6,0.8
		c-0.3,0.5-0.4,0.8-0.4,0.8l-0.7,0.8c-2.5,3.9-9.3,8.2-10.5,8.5c-1.6,0.5-7.8-0.7-9.6,1.1c-1.8,1.8-6.2,0.7-7.1,0.9
		c-0.7,0.2-5.1-2.3-5.6-3c-1.8-2.2-8.1-1.4-10.3-3.1c-2.2-1.7-4.9-6.7-5.2-7.9c-0.2-0.8-0.4-1.5-0.5-2.4c0-0.3,0-0.7-0.1-1
		c0-0.7-0.1-1.4-0.1-2.1c0-0.7,0-1.4,0.2-2.1c0.1-0.7,0.2-1.4,0.4-2.1c0.2-0.7,0.3-1.3,0.6-1.9c0.2-0.6,0.4-1.2,0.7-1.8
		c0.2-0.5,0.5-1.1,0.7-1.5c0.5-0.9,0.9-1.7,1.3-2.2c0.3-0.5,0.5-0.8,0.5-0.8s-0.2,0.3-0.5,0.8c-0.3,0.5-0.7,1.3-1.1,2.3
		c-0.2,0.5-0.4,1-0.6,1.6c-0.2,0.6-0.4,1.1-0.5,1.8c-0.2,0.6-0.3,1.3-0.4,1.9c-0.1,0.7-0.2,1.3-0.2,2c0,0.7,0,1.3,0,2
		c0,0.7,0.2,1.3,0.2,1.9c0.1,0.3,0.1,0.5,0.2,0.8c0.4,1.6,1.1,2.9,1.2,3.2c0.3,1.2,1,2.2,1,2.2c1.1,1.7,2.6,2.2,4.9,3
		C266.2,294.6,261.4,290.6,261.2,289.9 M611.6,460.5c-0.6-0.4-1.2-0.9-1.8-1.5c-1.3-1.2-2.5-3-3.4-5.4c-0.9-2.3-1.5-5.1-1.9-8.1
		c-0.5-3.1-0.9-6.4-1.7-10c-0.8-3.5-1.9-7.3-3.9-10.9c-1-1.8-2.1-3.5-3.5-5.2c-0.7-0.8-1.4-1.6-2.2-2.4c-0.4-0.4-0.8-0.7-1.2-1.1
		c-0.4-0.4-0.8-0.8-1.2-1.1l-1.2-1l-1.3-1c-0.8-0.6-1.6-1.2-2.4-1.9c-1.6-1.3-3.1-2.6-4.6-4c-7.2-6.5-17.3-14.2-19.2-24.3
		c-1.3-6.8,13.8-34.2,13.2-35c2.1,2.5,4.4,5.3,6.7,8.1c2.4,2.9,5,5.9,7.8,8.8c1.4,1.5,2.9,2.9,4.5,4.3c1.6,1.4,3.3,2.7,5.2,3.8
		c0.5,0.3,0.9,0.6,1.4,0.8c0.5,0.2,1,0.5,1.5,0.7c0.5,0.2,1,0.4,1.6,0.6l1.5,0.5l0.7,0.2c0.2,0.1,0.3,0.1,0.4,0.2l0.5,0.2l0.4,0.3
		c0.6,0.4,1.1,0.9,1.5,1.5c0.8,1.3,1.3,3,1.5,4.7c0.2,1.8,0.3,3.6,0.2,5.4c-0.1,3.6-0.5,7.2-0.9,10.6c-0.4,3.4-0.8,6.6-1.1,9.7
		c-0.3,3-0.4,5.8-0.3,8.3c0.1,2.5,0.6,4.6,1.5,6.2c0.9,1.6,2.2,2.4,3,2.7c0.4,0.2,0.8,0.3,1,0.3c0.2,0.1,0.4,0.1,0.4,0.1
		s-0.1,0-0.4-0.1c-0.2-0.1-0.6-0.2-1-0.4c-0.8-0.4-2-1.3-2.7-2.8c-0.7-1.5-1-3.7-1-6c0-2.4,0.4-5.1,0.9-8c0.5-2.9,1.2-6.1,1.9-9.5
		c0.7-3.4,1.4-7,1.8-10.8c0.2-1.9,0.3-3.9,0.2-6c-0.1-2.1-0.5-4.3-1.6-6.4c-0.6-1.1-1.4-2.1-2.4-2.9c-0.3-0.2-0.5-0.4-0.8-0.6
		c-0.3-0.2-0.5-0.3-0.8-0.5c-0.3-0.2-0.6-0.3-1-0.4l-0.7-0.3l-1.3-0.5c-0.4-0.2-0.8-0.4-1.2-0.6c-0.4-0.2-0.8-0.4-1.1-0.7
		c-0.4-0.2-0.8-0.5-1.1-0.8c-1.5-1-2.9-2.3-4.2-3.6c-1.3-1.3-2.6-2.8-3.8-4.2c-2.4-2.9-4.7-6-6.8-9c-3-4.3-5.9-8.4-8.7-12.2
		c1.2-3.1,2.3-6.3,3.3-9.7c11.6-39-41.4-29.2-33.5-71.8c7.9-42.6-28.1-17-31.4-55.4c-2.8-33.2-8.2-20.1-43.8-38.4
		c-1.2-0.6-2.2-1.2-3.3-1.8c1.7,1.6,3.4,3.3,5,5.3c1.2,1.6,2.4,3.4,3.1,5.8c0.3,1.2,0.5,2.6,0.3,4.2c-0.2,1.6-1,3.1-1.9,4.3
		c-1,1.2-2.1,2-3.2,2.6c-0.5,0.3-1.1,0.6-1.7,0.8c-0.3,0.1-0.4,0.2-0.7,0.3l-0.4,0.2l-0.2,0.1c-0.5,0.2-0.9,0.5-1.2,0.8
		c-0.4,0.3-0.7,0.7-0.9,1.1c-0.6,0.9-0.9,2.2-1.1,3.7c-0.2,1.5-0.2,3.1-0.1,4.7c0.3,3.3,1,6.8,1.9,10.3c1.9,7,4.9,13.9,8.3,20.7
		c3.5,6.8,7.5,13.3,12.2,19.4c2.3,3,4.8,5.9,7.5,8.4c1.3,1.3,2.7,2.4,4.1,3.4l1.3,0.9c0.5,0.3,1,0.8,1.5,1.2c1,0.8,1.9,1.7,2.8,2.8
		c1.7,2,3,4.5,3.8,7.1c0.8,2.6,1,5.1,1,7.6c-0.1,4.9-1.2,9.2-2.5,13.3c-1.3,4.1-2.7,8-4,11.7c-0.6,1.9-1.3,3.7-1.7,5.5
		c-0.5,1.8-0.8,3.5-0.9,5c-0.1,1.5,0.1,2.6,0.5,3.3c0.1,0.2,0.2,0.3,0.3,0.5c0.1,0.1,0.1,0.2,0.2,0.2c0,0,0,0,0,0.1
		c0,0,0.1,0.1,0.1,0.1l0.3,0.2l0.1,0.1l0.6,0.5l1.2,1c3.3,2.6,6.5,5.3,9.5,8.2c6,5.8,11.4,12.3,15.7,19.5c2.1,3.6,3.9,7.4,5.3,11.5
		c1.3,4,2.2,8.2,2.2,12.7c0,0,0.6,6.1-2.6,10.6c-0.5,1-1.1,1.9-1.8,2.8c-0.2,0.2-0.4,0.5-0.6,0.7c-0.2,0.2-0.4,0.5-0.6,0.7
		c-0.6,0.6-0.7,0.7-1.2,1.2c-0.6,0.6-1.2,1.1-1.8,1.7c-1.2,1.2-2.4,2.5-3.5,3.8c-4.5,5.3-8.2,11.2-10.7,17.1c-1.2,3-2,6-2.1,8.7
		c0,1.3,0.2,2.5,0.6,3.4c0.4,0.9,1,1.6,1.9,2.2c0.9,0.6,2.5,1.2,4,1.9c1.5,0.7,3,1.3,4.4,2c2.9,1.4,5.9,2.8,8.7,4.7
		c1.4,1,2.7,2.1,3.9,3.5c1.2,1.4,2.2,3.1,2.7,5c0.5,1.9,0.3,3.9-0.2,5.6c-0.5,1.7-1.2,3.2-2,4.5c-1.6,2.6-3.6,4.8-5.5,6.7
		c-1.9,1.9-3.8,3.6-5.5,5.4c-3.4,3.5-6.4,6.9-8.3,10.4c-0.9,1.8-1.6,3.6-1.8,5.4c-0.2,1.8-0.1,3.5,0.4,5.1c0.9,3.2,2.9,5.7,4.6,7.8
		c1.8,2,3.6,3.5,5.1,4.7c1.5,1.2,2.7,2,3.5,2.6c0.8,0.6,1.2,0.8,1.2,0.8s-0.4-0.2-1.3-0.7c-0.9-0.5-2.2-1.2-3.8-2.2
		c-1.6-1-3.6-2.4-5.7-4.3c-2.1-1.9-4.3-4.4-5.7-8c-0.7-1.8-1-3.8-0.9-6c0.1-2.1,0.7-4.3,1.6-6.4c1.8-4.2,4.9-8,8.2-11.8
		c1.6-1.9,3.4-3.8,5.1-5.7c1.7-1.9,3.3-3.9,4.4-6.1c0.6-1.1,1-2.2,1.3-3.3c0.2-1.1,0.2-2.1-0.1-3c-0.5-1.8-2.3-3.5-4.6-5
		c-2.3-1.4-5.1-2.6-7.9-3.8c-1.5-0.6-2.9-1.1-4.4-1.7c-0.8-0.3-1.5-0.6-2.3-0.9l-0.6-0.2l-0.3-0.1l-0.1-0.1l-0.2-0.1l-0.6-0.3
		l-0.8-0.4c-1.9-1.1-3.7-2.9-4.7-5c-1-2.1-1.4-4.3-1.5-6.4c-0.1-4.2,0.9-7.9,2.2-11.5c1.3-3.6,2.9-6.9,4.8-10.2
		c1.9-3.3,4-6.4,6.4-9.5c1.2-1.5,2.5-3,3.9-4.5c0.7-0.7,1.4-1.4,2.2-2.1c0.2-0.2,0.7-0.7,0.8-0.8c0.1-0.1,0.2-0.2,0.3-0.3
		c0.1-0.1,0.2-0.3,0.3-0.4c1.6-2.1,2.3-4.9,2.3-8.1c0-3.1-0.7-6.5-1.9-9.8c-1.2-3.3-2.8-6.5-4.7-9.6c-3.9-6.2-8.8-12-14.3-17.3
		c-2.8-2.6-5.7-5.1-8.8-7.5l-1.2-0.9l-0.6-0.4l-0.5-0.4l-0.3-0.2l-0.2-0.1l-0.3-0.2l-0.5-0.5c-0.4-0.3-0.6-0.6-0.8-0.9
		c-0.5-0.6-1-1.3-1.4-2c-0.8-1.4-1.2-3-1.5-4.4c-0.2-1.4-0.3-2.8-0.2-4.1c0.1-2.6,0.6-4.8,1.2-7c0.6-2.2,1.2-4.2,1.9-6.2
		c1.4-3.9,2.8-7.7,3.9-11.4c1.1-3.7,2-7.3,2.1-10.6c0.1-3.3-0.7-6-2.4-8.1c-0.4-0.5-1-1-1.5-1.5c-0.3-0.2-0.6-0.5-0.9-0.7l-1.2-0.8
		c-1.9-1.4-3.6-2.9-5.2-4.4c-3.2-3.1-5.9-6.3-8.4-9.7c-5-6.7-9.1-13.9-12.7-21.1c-3.5-7.3-6.5-14.8-8.5-22.6c-1-3.9-1.8-7.9-1.9-12
		c-0.1-2.1,0-4.2,0.4-6.4c0.4-2.2,1-4.5,2.5-6.7c1.4-2.2,3.7-4.1,6.2-4.9l1.3-0.5c0.2-0.1,0.5-0.2,0.7-0.3c0.5-0.3,0.9-0.5,1.1-0.7
		c0.2-0.2,0.3-0.3,0.3-0.5c0.1-0.2,0.1-0.6-0.1-1.1c-0.2-1-0.9-2.3-1.8-3.5c-1.7-2.4-4.1-4.7-6.5-6.8c-2.4-2.1-5-4.1-7.7-5.8
		c-5.3-3.6-10.8-6.6-16.2-8.9c-2.7-1.2-5.4-2.1-8.1-2.9l-1.1-0.3c-0.2,0-0.4-0.1-0.6-0.2l-0.6-0.2c-0.4-0.2-0.8-0.4-1.2-0.5
		c-0.4-0.2-0.8-0.4-1.1-0.6c-1.4-0.9-2.7-2.1-3.7-3.3c-2-2.6-3-5.3-3.8-8c-0.8-2.6-1.3-5.2-1.8-7.6c-1-4.9-1.9-9.3-3.6-13
		c-0.9-1.8-2-3.4-3.3-4.7c-1.3-1.3-2.8-2.1-4.4-2.8c-3.2-1.2-6.4-1.3-9.1-1.1c-2.7,0.2-5,0.6-6.9,0.9c-1.9,0.4-3.3,0.7-4.2,1
		c-1,0.3-1.4,0.4-1.4,0.4s0.5-0.2,1.4-0.5c0.9-0.3,2.3-0.8,4.2-1.4c1.8-0.5,4.1-1.1,6.9-1.5c2.8-0.3,6.1-0.6,9.7,0.5
		c1.8,0.6,3.6,1.4,5.3,2.8c1.6,1.3,3,3.1,4.1,5.1c2.2,4,3.5,8.6,4.7,13.4c0.6,2.4,1.3,4.8,2.1,7.2c0.9,2.4,1.9,4.7,3.5,6.4
		c0.8,0.9,1.7,1.6,2.7,2.2c0.3,0.1,0.5,0.3,0.8,0.4c0.3,0.1,0.5,0.2,0.8,0.3l0.4,0.1c0.1,0,0.3,0.1,0.4,0.1l0.5,0.1l0.5,0.1
		c3,0.6,6,1.5,8.9,2.6c5.9,2.2,11.8,5,17.6,8.5c1.7,1,3.4,2.2,5.1,3.3c-19.5-19.5,2.3-49.5-20.4-55.2
		c-51.4-12.9-15.5-15.5-69.4-58.4c-53.9-42.9-39.3,0-105-21C238.1,13,228.7,46.9,215,57.5c-71.2,33.3-43.2,24-69.4,65.4
		c-26.2,41.4-51.1,47.5-42.6,73.7c8.5,26.2-22.5,21.3-11,55.4c-27.4,20.1-19.2,33.1-10.4,54.8c11.9,29.2-0.9,20.1-16,37.4
		c-13.6,15.7-3,31.9,12,33.2c-1.8,2.3-3.8,4.4-6,6.3c-2.3,1.9-4.9,3.5-7.7,4.8l-1,0.4l-0.5,0.2l-0.6,0.2c-0.7,0.3-1.7,0.6-2.5,1
		c-1.7,0.7-3.3,1.5-5,2.5c-0.8,0.6-1.7,1.2-2.6,2.3c-0.4,0.5-0.9,1.3-1.2,2.3c-0.3,1-0.1,2.2,0.3,3c0.4,0.8,0.9,1.4,1.3,1.8
		c0.4,0.4,0.9,0.7,1.3,1c0.8,0.5,1.6,0.9,2.4,1.2c3,1.2,5.8,1.8,8.4,2.4c5.1,1.1,9.4,1.8,12.4,2.3c0.5,0.1,1,0.2,1.5,0.3
		c-9.4,6.8-17,14.7-14.3,24.6c4.7-9.8,10.1-14.4,15.5-15.9c-1.3,1.6-2.7,3.3-4,5.4c-0.7,1.1-1.4,2.3-1.9,4c-0.3,0.8-0.5,1.8-0.6,2.9
		c-0.1,1.1,0,2.5,0.5,3.8l0.2,0.5l0.1,0.1c0,0,0.2,0.5,0.1,0.3l0.1,0.1l0.3,0.4c0.2,0.3,0.4,0.6,0.6,0.9c0.2,0.2,0.3,0.4,0.5,0.6
		c0.7,0.8,1.5,1.4,2.3,1.8c1.6,0.9,3,1.3,4.3,1.7c2.5,0.5,4.7,0.6,6.9,0.7c-0.3,0.6-0.7,1.2-1,1.9c-0.8,1.5-1.6,3-2.3,4.8
		c-0.4,0.9-0.7,1.8-1.1,2.9c-0.3,1.1-0.7,2.3-0.7,4.1c0,0.5,0,1,0.1,1.6c-3.3,2.2-6.1,4.1-8,5.9c-0.7,0.7-1.3,1.3-1.7,1.9
		c-0.4,0.6-0.6,1.3-0.5,1.9c0,0.1,0.1,0.2,0.1,0.4c0,0.1,0.1,0.2,0.2,0.3c0.1,0.1,0.1,0.2,0.2,0.2c0.1,0.1,0.1,0.1,0.2,0.1
		c0.2,0.2,0.3,0.3,0.3,0.3s-0.1-0.1-0.3-0.3c0,0-0.1-0.1-0.1-0.2c0-0.1-0.1-0.1-0.1-0.2c0-0.1-0.1-0.2-0.1-0.3c0-0.1,0-0.2-0.1-0.3
		c0-0.5,0.2-1,0.7-1.6c0.5-0.5,1.1-1,1.9-1.6c2-1.4,4.8-2.8,8.2-4.5c0.5,1,1.2,2,2.1,2.7c0.2,0.2,0.5,0.4,0.7,0.5l0.4,0.2l0.2,0.1
		c0,0,0.5,0.3,0.3,0.2l0,0l0.3,0.1l0.3,0.1l0.4,0.1l0.4,0.1l0.3,0.1l0.5,0.1c0.3,0.1,0.6,0.1,1,0.2c2.4,0.3,4.1,0.1,5.9,0
		c3.5-0.3,6.7-0.7,9.7-0.8c1.5,0,2.9,0,3.9,0.2c0.5,0.1,0.9,0.3,1.1,0.4c0.2,0.1,0.3,0.1,0.4,0.3c0.3,0.4,0.2,1.7-0.2,2.8
		c-0.4,1.2-1,2.5-1.6,3.7c-1.3,2.4-2.8,4.6-4.2,6.6c-2.9,4-5.6,7.2-7.5,9.4c-1,1.1-1.7,2-2.2,2.6c-0.5,0.6-0.8,0.9-0.8,0.9
		s0.3-0.3,0.9-0.8c0.6-0.5,1.5-1.2,2.6-2.2c2.2-1.9,5.4-4.6,9.1-8.1c1.8-1.8,3.7-3.8,5.6-6.2c0.9-1.2,1.8-2.5,2.6-4
		c0.4-0.8,0.8-1.6,1-2.6c0.3-1,0.4-2.1,0.2-3.5c-0.2-1.3-1-2.7-2-3.7c-1-0.9-2-1.5-3-1.9c-2-0.8-3.8-1.2-5.6-1.4
		c-3.6-0.5-7-0.6-10.2-0.9c-0.6-0.1-1.2-0.1-1.8-0.2c0.1-0.2,0.3-0.4,0.4-0.7c0.2-0.3,0.4-0.6,0.6-0.9c1-0.6,1.9-1.1,2.9-1.7
		c1.6-1,3.2-2.1,4.9-3.5c0.4-0.3,0.8-0.7,1.2-1l0.6-0.5c0.3-0.2,0.4-0.4,0.6-0.6c0.4-0.4,0.8-0.8,1.2-1.3c0.4-0.5,0.8-1.1,1.2-2
		c0.2-0.4,0.3-1,0.4-1.6c0-0.6-0.1-1.5-0.4-2.2c-0.2-0.4-0.4-0.7-0.6-1c0,0-0.1-0.1-0.1-0.1c0.2-0.3,0.4-0.6,0.7-0.9
		c0.3-0.5,0.7-1,1-1.5c0.6,0.7,0.7,0.8,0.2,0c0,0,0-0.1-0.1-0.1c0.2-0.2,0.3-0.5,0.5-0.7c4.2,1.9,24.4,19.3,19.1,10
		c-1.4-2.5,1.5-6.8,6.4-11.6c0.9,1.5,1.8,3,2.7,4.6c-0.1,0.2-0.2,0.3-0.3,0.5c-1.5,3-2.8,6.3-3.4,9.9c-0.3,1.8-0.4,3.7-0.2,5.6
		c0.2,1.9,0.6,3.7,1.2,5.5c0.6,1.7,1.4,3.4,2.4,4.9c0.5,0.8,1,1.4,1.5,2.1l0.1,0.1c0,0.1-0.2-0.3-0.1-0.1l0,0.1l0.2,0.2l0.2,0.2
		c0,0,0.1,0.1,0.1,0.1c0,0,0,0,0,0c0,0,0,0.1,0.1,0.1c0.1,0.1,0.1,0.2,0.1,0.3c0,0.1,0,0.4-0.2,0.7c-0.3,0.7-1,1.7-1.9,2.6
		c-1.8,1.9-4,3.8-6.1,5.8c-2.1,2-4.3,4-6.2,6.2c-3.9,4.3-7.1,9.3-8.7,14.5c-1.7,5.2-1.9,10.4-1.3,14.9c0.5,4.6,1.7,8.6,3,12
		c1.3,3.4,2.7,6.3,3.9,8.6c1.2,2.3,2.2,4.1,3,5.3c0.7,1.2,1.1,1.8,1.1,1.8s-0.3-0.7-0.9-1.9c-0.6-1.2-1.5-3.1-2.4-5.5
		c-1-2.4-2.1-5.3-3-8.8c-0.9-3.4-1.7-7.4-1.8-11.7c-0.1-4.3,0.5-8.9,2.5-13.3c1.9-4.4,5-8.4,8.8-11.9c1.9-1.8,4.1-3.5,6.3-5.2
		c2.2-1.7,4.6-3.4,7-5.5c1.2-1.1,2.5-2.3,3.6-4.2c0.6-0.9,1.1-2.1,1.3-3.4c0.2-1.3,0.1-2.8-0.3-4c-0.1-0.3-0.2-0.6-0.3-0.9
		c-0.1-0.3-0.3-0.6-0.5-0.9c-0.4-0.6-0.3-0.6-0.7-1.2c-0.3-0.5-0.7-1-0.9-1.6c-0.6-1.1-0.9-2.1-1.2-3.2c-0.5-2.2-0.5-4.3,0.1-6.5
		c0.2-0.6,0.4-1.3,0.6-1.9c8,11.8,18,24.4,29.7,36.4c3.4,3.5,6.9,6.9,10.6,10.2c46.7,42.4,115.3,69.7,191.2,3.5c0.2,0,0.5,0,0.7,0.1
		c-0.1-0.1-0.2-0.3-0.3-0.4c8.6-7.5,17.3-16.3,26.1-26.3c0,0.2-0.1,0.4-0.1,0.6c-0.4,2-0.6,4.1-0.5,6.3c0.1,2.2,0.6,4.6,1.9,6.7
		c1.3,2.2,3.3,3.9,5.4,4.8c0.6,0.3,0.9,0.4,1.4,0.6l1.3,0.5c0.8,0.3,1.7,0.6,2.5,1c3.3,1.3,6.6,2.5,9.4,4c2.9,1.5,5.4,3.4,6.3,5.6
		c0.5,1.1,0.5,2.3,0.3,3.7c-0.3,1.3-0.8,2.7-1.6,4c-1.5,2.6-3.5,4.9-5.6,7.2c-4.2,4.6-8.3,9-11,14c-1.3,2.5-2.3,5.1-2.5,7.7
		c-0.2,1.3,0,2.6,0.1,3.8c0.2,1.2,0.6,2.4,1.1,3.4c0.9,2.1,2.2,3.8,3.5,5.3c1.3,1.4,2.6,2.6,3.9,3.6c1.2,1,2.4,1.8,3.4,2.5
		c1,0.7,1.9,1.2,2.7,1.7c1.5,0.8,2.3,1.3,2.3,1.3s-0.8-0.5-2.2-1.4c-0.7-0.5-1.5-1.1-2.5-1.8c-1-0.8-2.1-1.6-3.2-2.7
		c-1.2-1-2.4-2.3-3.6-3.7c-1.2-1.5-2.3-3.2-3-5.2c-0.4-1-0.6-2-0.8-3.1c-0.1-1.1-0.1-2.2,0.1-3.4c0.3-2.3,1.3-4.6,2.7-6.8
		c2.8-4.4,7-8.5,11.4-12.8c2.2-2.2,4.6-4.6,6.6-7.5c1-1.5,1.8-3.1,2.3-5.1c0.5-1.9,0.6-4.2-0.1-6.3c-0.7-2.1-2-3.8-3.5-5.2
		c-1.4-1.4-3-2.5-4.6-3.4c-2.3-1.4-4.7-2.6-7.1-3.7c3.2-2.6,9.6-8.6,14.4-14.9c0.1-0.2,0.3-0.4,0.4-0.6c0,0,0.1-0.1,0.1-0.1
		c2.5-3.6,4.7-7.6,6-11.8c34.7-3.7-30.5,100.9-7.5,128.3c-6.2-14.2,9.9-74,39.1-84.5c5.2-1.9,8.9-1.5,11.4,0.5
		c-0.9,3.2-2.3,6.7-4,10.3c-1.9,4.1-4.2,8.3-6.6,12.7c-2.5,4.4-5.2,8.9-7.9,13.6c-2.7,4.7-5.5,9.5-8,14.5c-2.5,5-4.9,10.2-6.2,15.9
		c-0.6,2.9-0.9,6-0.1,9.2c0.4,1.6,1.2,3.1,2.2,4.4c1.1,1.3,2.3,2.3,3.6,3c0.5,0.3,1.1,0.6,1.6,0.9c0.5,0.3,1,0.6,1.4,1
		c0.9,0.7,1.8,1.4,2.7,2.2c1.7,1.6,3,3.3,4.1,5.2c2.2,3.8,3.1,8.1,3.5,12c0.4,4,0.2,7.7-0.1,11c-0.2,3.3-0.5,6.2-0.3,8.7
		c0.1,1.2,0.4,2.4,1.2,3c0.4,0.3,0.9,0.4,1.3,0.5c0.4,0,0.8,0,1.1-0.1c0.6-0.1,1.1-0.3,1.4-0.4c0.3-0.1,0.5-0.2,0.5-0.2
		s-0.2,0-0.5,0.1c-0.3,0.1-0.8,0.2-1.4,0.3c-0.6,0-1.5,0.1-2.1-0.5c-0.6-0.6-0.8-1.7-0.8-2.8c0-2.3,0.5-5.2,1-8.5
		c0.5-3.3,1-7.1,1-11.3c0-4.2-0.6-8.9-2.7-13.5c-1.1-2.3-2.5-4.5-4.2-6.5c-0.9-1-1.8-1.9-2.9-2.8c-0.5-0.4-1.1-0.9-1.6-1.3
		c-0.6-0.4-1-0.7-1.6-1.1c-0.9-0.6-1.6-1.3-2.1-2.1c-0.5-0.8-0.8-1.7-1-2.7c-0.4-2,0-4.3,0.7-6.6c1.4-4.7,4-9.3,6.8-13.8
		c2.8-4.5,5.9-9,8.9-13.4c3.1-4.4,6.1-8.7,9-13c2.4-3.5,4.7-7,6.8-10.6c3.6,7.5-7.6,38.7-16.1,44.3c9.9-0.7,19.4-11.8,24.4-30.8
		c4.2-15.6,38.8-32.1,24.2,0.8c-14.6,32.9-23.7,54.2-10.3,61.5c-13.4-32.3,36.4-81.5,49.9-97.1c2.7-3.1,27.4-17.6,32.2-32.6
		c0.3,0.8,3.2,4.2,3.5,4.9c1.1,2.4,2.6,4.1,4,5.3c0.7,0.6,1.4,1,2,1.4c0.6,0.3,1.2,0.6,1.6,0.8c0.9,0.3,1.4,0.5,1.4,0.5
		s-0.5-0.2-1.3-0.6c-0.4-0.2-0.9-0.5-1.5-0.9c-0.6-0.4-1.2-0.9-1.8-1.5c-1.3-1.2-2.5-3-3.4-5.4c-0.5-1.3-1.2-10-2.7-13
		c-0.3-1.6-0.6-3.4-0.9-5.1c-0.8-3.5-1.9-7.3-3.9-10.9c-1-1.8-2.1-3.5-3.5-5.2c-0.7-0.8-1.4-1.6-2.2-2.4c-0.4-0.4-0.8-0.7-1.2-1.1
		c-0.4-0.4-0.8-0.8-1.2-1.1l-1.2-1l-1.3-1c-0.8-0.6-1.6-1.2-2.4-1.9c-1.6-1.3-3.1-2.6-4.6-4c-3.2-2.9-6.2-6-9-9.2
		c4.6-2.5,9.8-4.6,13-6.9c0.6,0.5,1.2,1,1.8,1.4c1.7,1.3,3.4,2.6,5.1,3.8c0.9,0.6,1.7,1.2,2.6,1.8l1.2,0.8l1.3,0.9
		c0.4,0.3,0.8,0.6,1.2,0.9c0.4,0.3,0.7,0.6,1.1,0.9c0.7,0.6,1.4,1.2,2.1,1.9c1.3,1.3,2.5,2.8,3.5,4.4c2,3.1,3.4,6.5,4.4,9.8
		c1,3.4,1.7,6.6,2.4,9.7c0.7,3,1.5,5.8,2.6,8.2c1.1,2.4,2.6,4.1,4,5.3c0.7,0.6,1.4,1,2,1.4c0.6,0.3,1.2,0.6,1.6,0.8
		c0.9,0.3,1.4,0.5,1.4,0.5s-0.5-0.2-1.3-0.6C612.7,461.2,612.2,460.9,611.6,460.5 M276.8,71.3c0.5-0.2,1.1-0.4,1.8-0.7
		c0.7-0.3,1.5-0.7,2.3-1.1c1.7-0.9,3.7-2.2,5.8-3.9c2.1-1.7,4.2-3.8,6.5-6.3c2.2-2.4,4.5-5.3,7.1-8.2c1.3-1.5,2.7-2.9,4.4-4.3
		c1.6-1.4,3.5-2.7,5.8-3.6c2.2-0.9,4.9-1.2,7.3-0.8c2.5,0.4,4.7,1.4,6.8,2.5L326,46l0.4,0.2l0.4,0.3l0.7,0.5c0.9,0.6,1.8,1.3,2.8,2
		c1.8,1.4,3.6,2.9,5.3,4.4c3.4,3.1,6.5,6.4,9.4,9.8c2.9,3.4,5.5,7,8.1,10c0.7,0.7,1.3,1.5,2,2c0.7,0.6,1.4,1.1,1.9,1.3
		c0.6,0.2,1,0.2,1.6,0l0.7-0.3l0.2-0.1l0.3-0.1l0.5-0.1c0.7-0.2,1.2-0.2,1.8-0.2c2.3,0,4.3,0.6,6.1,1.4c1.8,0.8,3.3,1.8,4.7,2.8
		c2.8,2,5.1,4.3,6.9,6.4c1.8,2.1,3.1,4.2,4,5.9c1,1.7,1.5,3.2,1.8,4.2c0.2,0.5,0.3,0.9,0.3,1.2C386,97.8,386,98,386,98
		s-0.1-0.1-0.2-0.4c-0.1-0.2-0.3-0.6-0.5-1.1c-0.5-0.9-1.2-2.3-2.3-3.8c-1.1-1.6-2.6-3.4-4.6-5.2c-1.9-1.8-4.3-3.8-7-5.4
		c-1.4-0.8-2.9-1.6-4.5-2.2c-1.6-0.6-3.3-1-4.8-0.8c-0.4,0-0.8,0.1-1,0.2l-0.2,0.1l-0.1,0c0,0-0.1,0-0.2,0.1l-0.6,0.3
		c-0.6,0.3-1.3,0.6-2.1,0.6c-0.4,0-0.8,0-1.1,0c-0.4,0-0.7-0.1-1.1-0.2c-1.4-0.4-2.4-1.1-3.3-1.8c-0.9-0.7-1.7-1.5-2.5-2.3
		c-1.5-1.6-2.9-3.2-4.3-4.9c-1.4-1.6-2.8-3.3-4.2-4.9c-2.8-3.3-5.9-6.4-9.1-9.3c-1.6-1.5-3.3-2.9-5-4.2c-0.9-0.6-1.7-1.3-2.6-1.9
		l-0.7-0.5l-0.3-0.2l-0.3-0.2l-1.3-0.8c-1.7-1-3.5-1.8-5.3-2.2c-1.8-0.4-3.5-0.2-5.2,0.3c-1.7,0.6-3.3,1.6-4.8,2.7
		c-1.5,1.1-2.9,2.4-4.3,3.8c-2.7,2.7-5.2,5.3-7.7,7.6c-2.5,2.3-4.9,4.3-7.3,5.8c-2.3,1.5-4.6,2.6-6.4,3.3c-0.5,0.2-0.9,0.3-1.3,0.5
		c-0.4,0.1-0.8,0.2-1.2,0.3c-0.7,0.2-1.4,0.4-1.9,0.4c-1,0.2-1.6,0.3-1.6,0.3S275.8,71.6,276.8,71.3 M56.1,398.3
		c0,0,0.1,0.2,0.1,0.3C56.1,398.4,56,398.2,56.1,398.3 M82.5,431c-0.1-0.1-0.2-0.2-0.1-0.2c0,0,0,0,0,0
		C82.5,430.8,82.5,430.9,82.5,431c0.1,0,0-0.1,0-0.1l-0.1-0.2l0-0.1c-0.1-0.2,0.1,0.2,0.1,0.2l0,0C82.6,430.9,82.6,430.9,82.5,431
		c0.1,0,0.1,0.1,0.1,0.1C82.6,431.1,82.6,431,82.5,431 M95.5,428.3c-0.7,1.6-1.6,3.3-2.6,5.1c-1.1-0.1-2.3-0.2-3.3-0.4
		c-2-0.3-3.9-0.6-5.4-1.2c-0.4-0.2-0.8-0.4-1.1-0.5c0.2-0.4,0.6-1,1.1-1.6c1-1.2,2.4-2.6,3.8-3.9c1.4-1.3,2.9-2.6,4.4-3.8
		c0.5-0.4,1-0.8,1.6-1.3c1.3,0.7,2.5,1.5,3.7,2.3C97.1,424.6,96.4,426.3,95.5,428.3 M94.7,398.1c-4.8,3.4-10.7,7-16.2,10.8
		c-0.5-0.2-1.1-0.4-1.8-0.7c-2.8-1.1-6.9-2.6-11.6-4.6c-2.3-1-4.9-2.2-7.1-3.6c-0.5-0.3-0.9-0.7-1.3-1c0.2-0.1,0.5-0.2,0.8-0.4
		c1.2-0.5,2.6-0.8,4.1-1.1c0.8-0.2,1.4-0.3,2.3-0.4l0.6-0.1l0.7-0.1l1.4-0.3c3.7-0.9,7.4-2.3,10.8-4.1c4-2.2,7.7-5,11-8.1
		c0,0-0.1-0.1-0.1-0.1c-0.7-1.3-1.6-3-2.5-5.1c-0.9-1.9-1.8-4.1-2.7-6.7c-0.9-2.6-1.7-5.6-2.3-9c-0.5-3.3-0.7-7-0.2-10.9
		c0.5-3.9,1.8-8,4-11.9c2.2-3.9,5.3-7.4,8.8-10.7c1.7-1.6,3.6-3.2,5.5-4.8c1.9-1.6,3.8-3.2,5.5-5c0.8-0.9,1.6-1.8,2-2.8
		c0.4-1,0.5-1.9,0.2-2.8c-0.2-0.5-0.4-0.9-0.8-1.4c-0.4-0.6-0.8-1.1-1.2-1.7c-0.8-1.2-1.5-2.4-2.1-3.7c-0.6-1.3-1.1-2.7-1.4-4.2
		c-0.3-1.5-0.4-3-0.3-4.6c0.3-3.1,1.8-6.1,3.7-8.4c1.9-2.4,4.2-4.4,6.6-6.2c2.4-1.8,4.9-3.4,7.4-5c5-3.2,10.2-6.3,14.8-10
		c2.3-1.9,4.4-3.9,6.2-6.2c1.7-2.3,3-4.9,3.5-7.7c1.2-5.6-1.1-11.4-3.1-17.4c-2-5.9-4.2-12-5.6-18.3c-1.5-6.3-2.3-12.8-1.9-19.3
		c0.4-6.5,2.2-12.9,5.2-18.7c1.5-2.9,3.3-5.5,5.2-8.1c1-1.2,2-2.5,3.1-3.6c0.5-0.6,1.1-1.1,1.6-1.7l1.6-1.6c4.3-4.3,8.3-8.7,12-13.3
		c3.7-4.6,7.1-9.3,9.7-14.2c2.6-4.9,4.5-10.2,4.4-15.4c0-2.6-0.5-5.2-1.3-7.6c-0.2-0.6-0.4-1.2-0.7-1.8c-0.3-0.6-0.5-1.2-0.8-1.8
		c-0.5-1.3-0.9-2.5-1.2-3.8c-1.3-5.1-1.1-10.4,0.2-15c1.3-4.7,3.7-8.7,6.5-12.1c2.8-3.4,5.9-6.2,9.1-8.4c6.4-4.5,12.8-7,18.2-8.3
		c5.4-1.3,9.8-1.3,12.8-1.1c1.5,0.1,2.6,0.3,3.4,0.4c0.8,0.1,1.1,0.2,1.1,0.2s-0.4-0.1-1.1-0.2c-0.8-0.1-1.9-0.3-3.4-0.3
		c-2.9-0.1-7.3,0-12.7,1.4c-5.3,1.4-11.6,4-17.8,8.5c-3.1,2.3-6.1,5-8.7,8.4c-2.6,3.4-4.9,7.3-6.1,11.8c-1.2,4.5-1.3,9.4,0,14.2
		c0.3,1.2,0.7,2.4,1.2,3.5c0.2,0.6,0.5,1.2,0.8,1.8c0.3,0.6,0.6,1.2,0.8,1.9c1,2.5,1.6,5.3,1.7,8.2c0.2,5.7-1.7,11.4-4.3,16.5
		c-2.6,5.2-6,10.1-9.7,14.8c-3.7,4.7-7.7,9.3-12,13.7l-1.6,1.7c-0.5,0.5-1,1.1-1.5,1.6c-1,1.1-1.9,2.3-2.9,3.5
		c-1.8,2.4-3.4,4.9-4.8,7.6c-2.7,5.4-4.3,11.3-4.6,17.4c-0.4,6.1,0.4,12.2,1.8,18.3c1.4,6,3.5,11.9,5.6,17.9c1,3,2.1,6,2.8,9.2
		c0.7,3.2,1,6.7,0.3,10.1c-0.7,3.4-2.2,6.5-4.2,9.1c-2,2.6-4.3,4.8-6.8,6.8c-4.9,4-10.2,7-15.2,10.1c-2.5,1.6-5,3.1-7.2,4.8
		c-2.3,1.7-4.4,3.5-6.1,5.5c-1.7,2-2.9,4.4-3.1,6.8c-0.3,2.4,0.3,4.9,1.3,7.3c0.5,1.2,1.1,2.3,1.8,3.4c0.3,0.5,0.7,1.1,1.1,1.7
		c0.4,0.6,0.8,1.3,1.1,2.1c0.3,0.8,0.4,1.7,0.3,2.5c-0.1,0.8-0.3,1.6-0.6,2.3c-0.7,1.4-1.6,2.5-2.5,3.4c-1.9,1.9-3.9,3.5-5.8,5.1
		c-1.9,1.5-3.8,3.1-5.5,4.6c-3.5,3.1-6.5,6.4-8.7,10c-2.2,3.6-3.6,7.4-4.2,11.1c-0.6,3.7-0.5,7.3-0.1,10.6c0.4,3.3,1.1,6.2,1.9,8.9
		c0.9,2.8,1.8,5.3,2.7,7.3c0.8,1.8,1.5,3.3,2.1,4.6c0,0,0,0.1,0,0.1c0.8-0.7,1.5-1.5,2.2-2.2C99.3,386.8,105,390.9,94.7,398.1
		 M129.8,332.1c-2.2,2.2-4.3,3.7-6.3,5.2c-2,1.5-3.8,2.9-5.6,4.3c-3.4,2.9-6.4,5.8-8.5,9.1c-2.2,3.2-3.6,6.7-4.3,10.1
		c-0.8,3.4-0.9,6.9-0.6,10c0.2,3.2,0.7,6.1,1.4,8.8c1.3,5.3,2.9,9.3,4,12.1c1.1,2.7,1.8,4.2,1.8,4.2s-0.2-0.3-0.7-1
		c-0.4-0.6-1.1-1.6-1.9-2.8c-1.6-2.5-3.9-6.3-6-11.6c-1.1-2.6-2.1-5.6-2.8-9.1c-0.7-3.4-1.1-7.3-0.7-11.5c0.4-4.2,1.6-8.7,3.9-12.9
		c2.2-4.2,5.4-8.2,8.9-11.7c1.8-1.8,3.6-3.5,5.5-5.1c1.8-1.7,3.7-3.3,5-4.8c0.7-0.8,1.1-1.5,1.2-1.9c0.1-0.2,0-0.2,0-0.2
		c0,0.1,0,0.2-0.1,0.1c0,0,0,0-0.1-0.1l-0.1-0.1l-0.1-0.1l0,0c0-0.1,0.1,0.1-0.1-0.1l-0.6-0.8c-0.2-0.3-0.4-0.5-0.6-0.9
		c-1-1.4-1.8-2.7-2.5-4.3c-0.7-1.5-1.4-3.2-1.8-5c-0.4-1.8-0.6-3.8-0.4-5.9c0.2-2,0.7-4.1,1.5-5.9c0.8-1.8,1.8-3.4,2.9-4.9
		c2.2-2.9,4.8-5.1,7.3-7c2.5-2,5.1-3.7,7.6-5.4c5-3.3,10-6.4,14.2-9.9c2.1-1.7,3.9-3.5,5.3-5.4c1.4-1.9,2.2-3.8,2.6-5.7
		c0.2-1,0.3-2,0.2-3c0-0.3,0-0.5-0.1-0.8c0-0.3-0.1-0.5-0.1-0.8c0-0.3-0.1-0.6-0.1-0.8l-0.1-0.6l-0.1-0.4c-0.6-2.5-1.6-5.4-2.6-8.3
		c-2-5.9-4.2-12.2-5.7-18.8c-1.5-6.6-2.4-13.6-1.8-20.8c0.5-7.1,2.6-14.2,5.9-20.4c1.6-3.1,3.6-6,5.8-8.7c1.1-1.3,2.2-2.6,3.4-3.8
		c0.6-0.6,1.2-1.2,1.8-1.8l1.6-1.6c4.3-4.2,8.3-8.4,12-12.7c3.7-4.3,7.1-8.8,9.7-13.3c2.6-4.5,4.4-9.3,4.6-13.8
		c0.1-2.3-0.2-4.5-0.9-6.7c-0.2-0.5-0.4-1.1-0.6-1.6c-0.3-0.7-0.5-1.2-0.8-1.9c-0.5-1.4-0.9-2.7-1.3-4.1c-1.3-5.5-1-11.2,0.6-16.1
		c1.5-5,4.2-9.2,7.1-12.6c3-3.5,6.3-6.2,9.6-8.4c6.6-4.4,13.2-6.8,18.8-7.9c5.5-1.1,10-1,13-0.7c1.5,0.2,2.6,0.4,3.4,0.5
		c0.7,0.2,1.1,0.3,1.1,0.3s-0.4,0-1.2-0.1c-0.8-0.1-1.9-0.2-3.4-0.2c-2.9,0-7.3,0.3-12.5,1.9c-5.2,1.6-11.3,4.3-17.2,8.9
		c-2.9,2.3-5.8,5.1-8.2,8.4c-2.4,3.3-4.4,7.1-5.4,11.3c-1,4.2-1,8.7,0.4,13.1c0.3,1.1,0.7,2.2,1.2,3.2c0.2,0.5,0.6,1.2,0.8,1.7
		c0.3,0.6,0.7,1.3,1,2c1.2,2.8,2,5.8,2.1,9c0.2,3.2-0.2,6.3-0.9,9.4c-0.8,3-1.9,6-3.1,8.8c-2.6,5.6-6,10.7-9.6,15.7
		c-3.7,4.9-7.7,9.7-11.9,14.3l-1.6,1.7c-0.5,0.5-0.9,1-1.4,1.6c-0.9,1-1.8,2.1-2.6,3.2c-1.6,2.2-3,4.6-4.2,7
		c-2.4,4.9-3.7,10.1-3.9,15.6c-0.3,5.5,0.5,11.1,1.9,16.8c1.4,5.7,3.4,11.4,5.5,17.4c1,3,2.1,6.1,2.9,9.7l0.2,0.7l0.1,0.6
		c0.1,0.5,0.2,1,0.2,1.5c0.1,0.5,0.1,1,0.2,1.5c0,0.5,0.1,1,0.1,1.5c0.1,2.1-0.1,4.2-0.5,6.3c-0.8,4.2-2.8,8-5.2,11
		c-2.4,3.1-5,5.5-7.7,7.6c-5.3,4.2-10.8,7.2-15.8,10.3c-2.5,1.5-4.9,3-7,4.5c-2.1,1.5-4.1,3.1-5.4,4.7c-1.4,1.6-2.1,3-2.4,4.5
		c-0.1,0.7-0.1,1.5,0,2.4c0.1,0.9,0.4,1.8,0.8,2.8c0.4,1,0.9,2,1.4,2.8c0.1,0.2,0.3,0.5,0.5,0.8l0.5,0.8l0.4,0.6
		c0.1,0.2,0.3,0.5,0.4,0.7c0.3,0.5,0.5,1.1,0.7,1.7c0.4,1.2,0.6,2.7,0.5,4c-0.1,1.4-0.5,2.6-1,3.6
		C132.1,329.8,130.9,331,129.8,332.1 M184.2,382.7c-0.4,0.8-0.9,1.4-1.4,1.8c-1,0.8-1.9,1.1-2.7,1.3c-1.6,0.5-2.9,0.7-4.3,0.8
		c-2.7,0.3-5.2,0.4-7.7,0.6c-5,0.3-9.8,0.6-14.3,1.3c-4.5,0.8-8.7,2.1-11.9,4.4c-1.6,1.2-2.9,2.6-3.7,4.2c-0.9,1.6-1.4,3.4-1.6,5.1
		c-0.1,1-0.2,2-0.1,2.9c0,2.5,0.5,4.9,1,7c0.8,2.9,1.7,5.5,2.5,7.5c0.8,2.1,1.6,3.6,2.1,4.7c0.5,1.1,0.8,1.7,0.8,1.7s-0.3-0.5-1-1.5
		c-0.6-1-1.5-2.5-2.6-4.5c-1-2-2.3-4.4-3.3-7.4c-0.7-2.1-1.4-4.4-1.7-7c-0.1-1.1-0.2-2.3-0.2-3.6c0.1-2,0.5-4.2,1.5-6.3
		c0.9-2.1,2.4-4,4.3-5.6c3.7-3.1,8.4-4.9,13.2-6c4.8-1.2,9.8-1.8,14.8-2.3c2.5-0.3,5-0.5,7.3-0.9c1.1-0.2,2.2-0.4,3-0.7l-0.9-1.2
		l-1.2-1.5l-1.2-1.6c-1.6-2.2-2.9-4.4-4.2-6.8c-1.2-2.4-2.3-4.8-3.1-7.4c-0.8-2.5-1.4-5.2-1.7-7.7c-0.6-5.2-0.3-10.2,0.4-14.6
		c0.3-2.2,0.7-4.4,1.2-6.4c0.4-2,0.8-3.9,1.2-5.8c0.8-3.7,1.3-7,1.7-10c0.4-3,0.7-5.6,0.7-7.8c0.1-1.1,0.1-2.1,0.1-3
		c0-0.9,0.1-1.6,0.1-2.2c0-1.2,0.1-1.9,0.1-1.9s0.2,0.6,0.7,1.7c0.4,1.1,1,2.8,1.5,5.1c0.3,1.1,0.5,2.3,0.7,3.7
		c0.2,1.4,0.5,2.8,0.6,4.4c0.3,3.2,0.3,6.8,0.1,10.7c-0.2,3.9-0.7,8-1,12.2c-0.3,4.2-0.5,8.5,0.1,12.7c0.3,2.1,0.7,4.3,1.3,6.4
		c0.6,2.1,1.4,4.3,2.3,6.4c1,2.1,2,4.3,3.2,6.4l0.9,1.6l1,1.6c0.3,0.6,0.6,1.1,1,1.7c0.2,0.4,0.5,0.8,0.7,1.3
		c0.2,0.5,0.4,1.1,0.5,1.9C184.8,380.9,184.6,381.9,184.2,382.7 M289.6,514.1c-73.5,6.3-73.8-76.9-72.1-111.7
		c5.6-5.1,10.4-10.3,12-15.4c1,4.2,2,8.6,3,13.1c1.9,8.7,3.4,17.6,3.9,24.2c0.2,3.3,0.2,6.1-0.2,8c-0.2,0.9-0.6,1.6-0.9,2
		c-0.4,0.4-0.7,0.4-0.7,0.4c0,0,0.3,0,0.7-0.3c0.4-0.3,0.9-1,1.3-1.9c0.8-1.9,1.3-4.7,1.6-8.1c0.6-6.8,0.5-15.9,0.1-25
		c-0.4-8.9-1.1-17.8-1.7-24.5c3.3,3.1,6,5.8,6.5,6.7c1.5,2.4,24.7,10,42.6,7.3c18-2.7,22.2-7,26.8-11c4-3.4,23.4-13.1,37.3-33.7
		c-1.8,6.8-2.5,14.3-1.7,21.4l-0.2,0c0,0,0,0.2,0,0.6c0,0.2,0,0.5,0.1,0.8c0,0.3,0.1,0.6,0.1,1c0.2,1.5,0.5,3.7,1.1,6.2
		c1,5.1,2.7,11.7,5.2,18.2c0.6,1.6,1.3,3.2,2,4.7c0.7,1.5,1.5,3,2.2,4.4c0.8,1.4,1.6,2.7,2.5,3.9c0.8,1.2,1.8,2.3,2.6,3.2
		c0.4,0.5,0.9,0.9,1.3,1.3c0.4,0.4,0.9,0.7,1.3,1.1c0.5,0.4,1,0.7,1.5,1C364.6,450.7,356.1,508.4,289.6,514.1 M367.9,411.7
		c-0.4-0.3-0.8-0.6-1.3-1c-0.4-0.4-0.8-0.7-1.2-1.1c-0.4-0.4-0.8-0.9-1.2-1.4c-0.8-1-1.6-2.1-2.3-3.3c-0.8-1.2-1.4-2.6-2.1-4
		c-0.6-1.4-1.3-2.9-1.8-4.5c-0.6-1.5-1.1-3.1-1.5-4.8c-0.8-2.7-1.4-5.3-1.9-7.9c3.4,4.7,8.3,8.2,14.8,9.8
		C368.9,398.6,368.5,404.9,367.9,411.7 M370.2,276.2c-0.4,3.2-2.9,35.4-10.8,49.6v0c0,0,0,0,0,0c-1.2,2.1-2.4,3.8-3.9,5
		c-1.5,2.3-2.8,5-3.9,7.8c-13.7,18.7-31.6,27.6-35.4,30.9c-4.6,4-8.8,8.2-26.8,11c-18,2.7-41.1-4.9-42.6-7.3
		c-1.5-2.4-20.9-19.9-20.9-19.9c-0.4-0.9-0.7-1.5-0.7-1.5c-27.2-20.4-31.1-56.7-33.4-68.1c-2.3-11.4-6.6-25-8.2-40
		c-0.7-6.3-8.9-61.2,7.1-77.2c20.5-6.8,27.4-50.2,45.7-53.4c13.7,0.9,5.5,16.4-2.7,20.1c11-2.3,21-10,22.8-17.4
		c28.3,3.7,18.2,9.5,1.7,20.7c-6.5,4.4-22.1,9.7-35,1.2c11.4,15.5,52.1,4.1,66.7-13.2c16.4-8.7,37.9,12.3,46.1,23.7
		c8.2,11.4,13,26.9,31.7,42.5c1.6,4.5,1.5,10,0.7,15.9c-3.2-5-9.6-13.2-17.1-15.6c0.5,0.4,0.2,2.2,0.2,2.2s-9.2-5.5-7.9-4.1
		c1.4,1.4,1.3,2.7,1.3,2.7s-5.7-2.7-8.9-2.7s1.1,2.1,1.1,2.1l-6.3-2.1c0,0,0.2,0.7,0,2.3c-10.9,0.2-25.9,9.8-25.9,9.8v-6.8l-3.8,7.9
		c0,0,0-3.9,0.5-6.2c0.5-2.3-3,8-3,8V200c0,0-1.9,4.6-3,5.7c-1,1.1,0-2.7,0-2.7s-1.9,6.8-2.5,7.3h-2.4c0,0,6.2,4.7,7.1,4.3
		c0.9-0.4,13.6-10.9,30.7-9.8c1.1-1.4,2.3-3.1,3.2-4.4c-0.4,0.9-0.4,1.8,1.4,1.5c3.6-0.6,9.5-2.2,18.2-2.6
		c8.7-0.5,15.7,12.8,13.2,21.2c-3.6,4.2-9.2,4-9.9,3.7c-0.9-0.3-2.1-3.1-2.6-4.6c-0.2-0.5-1.1-1-2.3-1.6l0.4-0.8
		c0,0-0.2-0.1-0.5-0.2c-0.3-0.1-0.7-0.3-1.3-0.6c-0.6-0.2-1.3-0.5-2.2-0.8c-0.8-0.3-1.8-0.5-2.9-0.8c-2.1-0.5-4.6-0.9-7.3-0.9
		c-2.7-0.1-5.6,0.1-8.4,0.6c-2.8,0.5-5.6,1.3-8,2.5c-1.2,0.6-2.4,1.2-3.4,1.8c-1,0.7-2,1.4-2.8,2.1c-0.4,0.4-0.8,0.7-1.1,1.1
		c-0.3,0.3-0.7,0.7-0.9,1c-0.3,0.3-0.5,0.7-0.7,1c-0.2,0.3-0.4,0.6-0.6,0.8c-0.3,0.5-0.6,0.9-0.7,1.2c-0.2,0.3-0.2,0.5-0.2,0.5
		s0.1-0.2,0.3-0.4c0.2-0.3,0.4-0.7,0.8-1.2c0.2-0.3,0.4-0.5,0.6-0.8c0.2-0.3,0.5-0.6,0.8-0.9c0.3-0.3,0.6-0.7,1-1
		c0.3-0.3,0.7-0.7,1.1-1c0.8-0.7,1.8-1.3,2.8-1.9c1-0.6,2.2-1.2,3.4-1.7c2.4-1,5.2-1.7,7.9-2.1c2.8-0.4,5.6-0.5,8.2-0.2
		c2.6,0.2,5,0.6,7,1.2c1,0.3,1.9,0.6,2.7,0.8c0,0,0,0,0,0c0.3,0.4,0.2,0.7-1.3,0.4c-3.2-0.7-5.6-3-17.7,0c-12.1,3-20.5,14-20.5,14.6
		c0,0,4.3,2.4,3.3,1.8c-0.9-0.7,1.9-2.1,1.9-2.1s2.7,1.5,5.4,2.1c0,0-3.9-1.9-5.1-4.1c-1.3-2.2,6.2-7.2,9.1-6.5
		c-1.5,0.8-2.2,11.8,7.9,11.5c10-0.2,10.7-7.5,11-10.7c0,0,3.5,0.8,4.9,2.4c1.4,1.6,1.5,4.3-1.4,8.1c1.4-0.1,5.5-5.1,5.5-5.1
		s0.8-3.1,1.9-0.7c1.1,2.4-1.3,5.9-8.4,8.7c-7.2,2.7-14.7,0.7-19.1,0c0,0,4.8,2.4,12.9,3c8.1,0.6,18-6.5,18-6.5s-0.8-1.7-0.6-4
		c1.6-0.4,10.2-5.7,12.7-10.4c-2.5,13.1-4.2,25.7,6.3,30.6C380.3,253.8,370.7,272.6,370.2,276.2 M322.4,226.3c0.1,0.3,0.2,0.6,0.4,1
		c0.2,0.4,0.4,0.8,0.7,1.2c0.3,0.4,0.6,0.9,1,1.3c0.4,0.4,0.8,0.9,1.3,1.3c0.5,0.4,1.1,0.7,1.7,1c0.3,0.1,0.6,0.2,0.9,0.3
		c0.3,0,0.6,0.1,1,0.1c0.3,0,0.7,0,1,0c0.3-0.1,0.6-0.1,1-0.2c0.3-0.1,0.7-0.2,1-0.3c0.3-0.1,0.6-0.2,0.9-0.3
		c0.3-0.1,0.6-0.3,0.8-0.4c0.2-0.2,0.5-0.3,0.7-0.5c0.4-0.4,0.9-0.7,1.2-1.1c0.6-0.8,1-1.6,1.1-2.2c0.2-0.6,0.2-0.9,0.2-0.9
		s0.1,0.4,0,1c0,0.3-0.1,0.7-0.2,1.1c-0.1,0.4-0.3,0.9-0.6,1.4c-0.3,0.5-0.7,0.9-1.2,1.4c-0.2,0.2-0.5,0.4-0.8,0.6
		c-0.3,0.2-0.6,0.3-0.9,0.5c-0.3,0.1-0.6,0.3-1,0.4c-0.3,0.1-0.7,0.2-1,0.3c-0.4,0.1-0.7,0.1-1.1,0.2c-0.4,0-0.8,0-1.1,0
		c-0.4,0-0.8-0.1-1.1-0.2c-0.4-0.1-0.7-0.2-1.1-0.4c-0.7-0.3-1.3-0.7-1.8-1.2c-0.5-0.4-1-0.9-1.3-1.5c-0.4-0.5-0.7-1-0.9-1.5
		c-0.2-0.5-0.4-1-0.5-1.4c-0.1-0.4-0.2-0.8-0.2-1.1c0-0.3,0-0.6,0-0.7c0-0.2,0.1-0.2,0.1-0.2s0,0.1,0,0.3
		C322.3,225.8,322.4,226,322.4,226.3 M328.5,224.2c0-1.3,1-2.3,2.3-2.3c1.3,0,2.3,1,2.3,2.3c0,1.3-1,2.3-2.3,2.3
		C329.5,226.5,328.5,225.5,328.5,224.2 M448.4,422.7c-0.5,1.7-1.2,3.2-2,4.5c-1.6,2.6-3.6,4.8-5.5,6.7c-1.9,1.9-3.8,3.6-5.5,5.4
		c-2.3,2.3-4.4,4.6-6.1,7c3.8,3.4,2.4,11.2-0.4,19.1c-3,7.6-7.8,17.2-10,20.9c-0.5-0.2-1-0.5-1.5-0.7c-0.8-0.4-1.6-0.7-2.4-1.1
		l-1.2-0.6c-0.4-0.2-0.9-0.4-1.1-0.5c-1.1-0.6-1.9-1.4-2.4-2.4c-1-2-0.8-5.1,0-8.1c0.8-3.1,2.2-6.2,3.8-9.1c1.6-3,3.5-5.8,5.6-8.5
		c1.3-1.7,2.6-3.2,4-4.7c0.2-0.7,0.5-1.4,0.8-2.1c0.5-1.3,1.2-2.5,2-3.7c1.7-2.8,3.9-5.5,6.2-8.1c1.6-1.9,3.4-3.8,5.1-5.7
		c1.7-1.9,3.3-3.9,4.4-6.1c0.6-1.1,1-2.2,1.3-3.3c0.2-1.1,0.2-2.1-0.1-3c-0.5-1.8-2.3-3.5-4.6-5c-2.3-1.4-5.1-2.6-7.9-3.8
		c-1.5-0.6-2.9-1.2-4.4-1.7c-0.8-0.3-1.5-0.6-2.3-0.9l-0.6-0.2l-0.3-0.1l-0.1-0.1l-0.2-0.1l-0.6-0.3l-0.8-0.4
		c-1.9-1.1-3.7-2.9-4.7-5c-1-2.1-1.4-4.3-1.5-6.4c-0.1-4.2,0.9-7.9,2.2-11.5c1.3-3.6,2.9-6.9,4.8-10.2c1.9-3.3,4-6.4,6.4-9.5
		c1.2-1.5,2.5-3,3.9-4.5c0.7-0.7,1.4-1.4,2.2-2.1c0.2-0.2,0.7-0.7,0.8-0.8c0.1-0.1,0.2-0.2,0.3-0.3c0.1-0.1,0.2-0.3,0.3-0.4
		c1.6-2.1,2.3-4.9,2.3-8.1c0-3.1-0.7-6.5-1.9-9.8c-1.2-3.3-2.8-6.5-4.7-9.6c-3.9-6.2-8.8-12-14.3-17.3c-2.8-2.6-5.7-5.1-8.8-7.5
		l-1.2-0.9l-0.6-0.4l-0.5-0.4l-0.3-0.2l-0.2-0.1l-0.3-0.2l-0.5-0.5c-0.4-0.3-0.6-0.6-0.8-0.9c-0.5-0.6-1-1.3-1.4-2
		c-0.8-1.4-1.2-3-1.5-4.4c-0.2-1.4-0.3-2.8-0.2-4.1c0.1-2.6,0.6-4.8,1.2-7c0.6-2.2,1.2-4.2,1.9-6.2c1.4-3.9,2.8-7.7,3.9-11.4
		c1.1-3.7,2-7.3,2.1-10.6c0.1-3.3-0.7-6-2.4-8.1c-0.4-0.5-1-1-1.5-1.5c-0.3-0.2-0.6-0.5-0.9-0.7l-1.2-0.8c-1.9-1.4-3.6-2.9-5.2-4.4
		c-3.2-3.1-5.9-6.3-8.4-9.7c-5-6.7-9.1-13.9-12.7-21.2c-3.5-7.3-6.5-14.8-8.5-22.6c-1-3.9-1.8-7.9-1.9-12c-0.1-2.1,0-4.2,0.4-6.4
		c0.4-2.2,1-4.5,2.5-6.7c1.4-2.2,3.7-4.1,6.2-4.9l1.3-0.5c0.2-0.1,0.5-0.2,0.7-0.3c0.5-0.3,0.9-0.5,1.1-0.7c0.2-0.2,0.3-0.3,0.3-0.5
		c0.1-0.2,0.1-0.6-0.1-1.1c-0.2-1-0.9-2.3-1.8-3.5c-1.7-2.4-4.1-4.7-6.5-6.8c-2.4-2.1-5-4.1-7.7-5.8c-5.3-3.6-10.8-6.6-16.2-8.9
		c-2.7-1.2-5.4-2.1-8.1-2.9l-1.1-0.3c-0.2,0-0.4-0.1-0.6-0.2l-0.6-0.2c-0.4-0.2-0.8-0.4-1.2-0.5c-0.4-0.2-0.8-0.4-1.1-0.6
		c-1.4-0.9-2.7-2.1-3.7-3.3c-2-2.5-3-5.3-3.8-8c-0.8-2.6-1.3-5.2-1.8-7.6c-1-4.9-1.9-9.3-3.6-13c-0.9-1.8-2-3.4-3.3-4.7
		c-1.3-1.3-2.8-2.1-4.4-2.8c-3.2-1.2-6.4-1.3-9.1-1.1c-2.7,0.2-5,0.6-6.9,0.9c-1.9,0.4-3.3,0.7-4.2,1c-1,0.3-1.4,0.4-1.4,0.4
		s0.5-0.2,1.4-0.5c0.9-0.3,2.3-0.8,4.2-1.4c1.8-0.5,4.1-1.1,6.9-1.5c2.8-0.3,6.1-0.6,9.7,0.5c1.8,0.6,3.6,1.4,5.3,2.8
		c1.6,1.3,3,3.1,4.1,5.1c2.2,4,3.5,8.6,4.7,13.4c0.6,2.4,1.3,4.8,2.1,7.2c0.9,2.4,1.9,4.7,3.5,6.4c0.8,0.9,1.7,1.6,2.7,2.2
		c0.3,0.1,0.5,0.3,0.8,0.4c0.3,0.1,0.5,0.2,0.8,0.3l0.4,0.1c0.1,0,0.3,0.1,0.4,0.1l0.5,0.1l0.5,0.1c3,0.6,6,1.5,8.9,2.6
		c5.9,2.2,11.8,5,17.6,8.5c2.9,1.8,5.8,3.7,8.6,5.9c2.8,2.2,5.5,4.7,8,7.8c1.2,1.6,2.4,3.4,3.1,5.8c0.3,1.2,0.5,2.6,0.3,4.2
		c-0.2,1.6-1,3.1-1.9,4.3c-1,1.2-2.1,2-3.2,2.6c-0.5,0.3-1.1,0.6-1.7,0.8c-0.3,0.1-0.4,0.2-0.7,0.3l-0.4,0.2l-0.2,0.1
		c-0.5,0.2-0.9,0.5-1.2,0.8c-0.4,0.3-0.7,0.7-0.9,1.1c-0.6,0.9-0.9,2.2-1.1,3.7c-0.2,1.5-0.2,3.1-0.1,4.7c0.3,3.3,1,6.8,1.9,10.3
		c1.9,7,4.9,13.9,8.3,20.7c3.5,6.8,7.5,13.3,12.2,19.4c2.3,3,4.8,5.9,7.5,8.4c1.3,1.3,2.7,2.4,4.1,3.4l1.3,0.9
		c0.5,0.3,1,0.8,1.5,1.2c1,0.8,1.9,1.7,2.8,2.8c1.7,2,3,4.5,3.8,7.1c0.8,2.6,1,5.1,1,7.6c-0.1,4.9-1.2,9.2-2.5,13.3
		c-1.3,4.1-2.7,8-4,11.7c-0.6,1.9-1.3,3.7-1.7,5.5c-0.5,1.8-0.8,3.5-0.9,5c-0.1,1.5,0.1,2.6,0.5,3.3c0.1,0.2,0.2,0.3,0.3,0.5
		c0.1,0.1,0.1,0.2,0.2,0.2c0,0,0,0,0,0l0,0c0,0,0.1,0.1,0.1,0.1l0.3,0.2l0.1,0.1l0.6,0.5l1.2,1c3.3,2.6,6.5,5.3,9.5,8.2
		c6,5.8,11.4,12.3,15.7,19.5c2.1,3.6,3.9,7.4,5.3,11.5c1.3,4,2.2,8.3,2.2,12.8c0,2.3-0.4,4.6-1,6.8c-0.7,2.3-1.8,4.5-3.3,6.4
		c-0.2,0.2-0.4,0.5-0.6,0.7c-0.2,0.2-0.4,0.5-0.6,0.7c-0.6,0.6-0.7,0.7-1.2,1.2c-0.6,0.6-1.2,1.1-1.8,1.7c-1.2,1.2-2.4,2.5-3.5,3.8
		c-4.5,5.3-8.2,11.2-10.7,17.1c-1.2,3-2,6-2.1,8.7c0,1.3,0.2,2.5,0.6,3.4c0.4,0.9,1,1.6,1.9,2.2c0.9,0.6,2.5,1.2,4,1.9
		c1.5,0.7,3,1.3,4.4,2c2.9,1.4,5.9,2.8,8.7,4.7c1.4,1,2.7,2.1,3.9,3.5c1.2,1.4,2.2,3.1,2.6,5C449,419.1,448.8,421.1,448.4,422.7
		 M499.3,438c-0.5,1.7-1.2,3.2-2,4.5c-1.6,2.6-3.6,4.8-5.5,6.7c-1.9,1.9-3.8,3.6-5.5,5.4c-3.4,3.5-6.4,6.9-8.3,10.4
		c-0.9,1.8-1.6,3.6-1.8,5.4c-0.2,1.8-0.1,3.5,0.4,5.1c0.9,3.2,2.9,5.7,4.6,7.8c1.8,2,3.6,3.5,5.1,4.7c1.5,1.2,2.7,2,3.5,2.6
		c0.8,0.5,1.2,0.8,1.2,0.8s-0.5-0.2-1.3-0.7c-0.9-0.5-2.2-1.2-3.8-2.2c-1.6-1.1-3.6-2.4-5.7-4.3c-2.1-1.9-4.3-4.4-5.7-8
		c-0.7-1.8-1-3.8-0.9-6c0.1-2.1,0.7-4.3,1.6-6.4c1.8-4.2,4.9-8,8.2-11.8c1.6-1.9,3.4-3.8,5.1-5.7c1.7-1.9,3.3-3.9,4.4-6.1
		c0.6-1.1,1-2.2,1.3-3.3c0.2-1.1,0.2-2.1-0.1-3c-0.5-1.8-2.3-3.5-4.6-5c-2.3-1.4-5.1-2.6-7.9-3.8c-1.5-0.6-3-1.2-4.4-1.7
		c-0.8-0.3-1.5-0.6-2.3-0.9l-0.6-0.2l-0.3-0.1l-0.1-0.1l-0.2-0.1l-0.6-0.3l-0.8-0.4c-1.9-1.1-3.7-2.9-4.7-5c-1-2.1-1.4-4.3-1.5-6.4
		c-0.1-4.2,0.9-7.9,2.2-11.5c1.3-3.6,2.9-6.9,4.8-10.2c1.9-3.3,4-6.4,6.4-9.5c1.2-1.5,2.5-3,3.9-4.5c0.7-0.7,1.4-1.4,2.2-2.1
		c0.2-0.2,0.7-0.7,0.8-0.8c0.1-0.1,0.2-0.2,0.3-0.3c0.1-0.1,0.2-0.3,0.3-0.4c1.6-2.1,2.3-4.9,2.3-8c0-3.1-0.7-6.5-1.9-9.8
		c-1.2-3.3-2.8-6.5-4.7-9.6c-3.9-6.2-8.8-12-14.3-17.3c-2.8-2.6-5.7-5.1-8.8-7.5l-1.2-0.9l-0.6-0.4l-0.5-0.4l-0.3-0.2l-0.2-0.1
		l-0.3-0.2l-0.5-0.5c-0.4-0.3-0.6-0.6-0.8-0.9c-0.5-0.6-1-1.3-1.4-2c-0.8-1.4-1.2-3-1.5-4.4c-0.2-1.4-0.3-2.8-0.2-4.1
		c0.1-2.6,0.6-4.8,1.2-7c0.6-2.2,1.2-4.2,1.9-6.2c1.4-3.9,2.8-7.7,3.9-11.4c1.1-3.7,2-7.3,2.1-10.6c0.1-3.3-0.7-6-2.4-8.1
		c-0.4-0.5-1-1-1.5-1.5c-0.3-0.2-0.6-0.5-0.9-0.7l-1.2-0.8c-1.9-1.4-3.6-2.9-5.2-4.4c-3.2-3.1-5.9-6.3-8.4-9.7
		c-5-6.7-9.1-13.9-12.7-21.2c-3.5-7.3-6.5-14.8-8.5-22.6c-1-3.9-1.8-7.9-1.9-12c-0.1-2.1,0-4.2,0.4-6.4c0.4-2.2,1-4.5,2.5-6.7
		c1.4-2.2,3.7-4.1,6.2-4.9l1.3-0.5c0.2-0.1,0.5-0.2,0.7-0.3c0.5-0.3,0.9-0.5,1.1-0.7c0.2-0.2,0.3-0.3,0.3-0.5
		c0.1-0.2,0.1-0.6-0.1-1.1c-0.2-1-0.9-2.3-1.8-3.5c-1.7-2.5-4.1-4.7-6.5-6.8c-2.4-2.1-5-4.1-7.7-5.8c-5.3-3.6-10.8-6.6-16.2-8.9
		c-2.7-1.2-5.4-2.1-8.1-2.9l-1.1-0.3c-0.2,0-0.4-0.1-0.6-0.2l-0.6-0.2c-0.4-0.2-0.8-0.4-1.2-0.5c-0.4-0.2-0.8-0.4-1.1-0.6
		c-1.4-0.9-2.7-2.1-3.7-3.3c-2-2.6-3-5.3-3.8-8c-0.8-2.6-1.3-5.2-1.8-7.6c-1-4.9-1.9-9.3-3.6-13c-0.9-1.8-2-3.4-3.3-4.7
		c-1.3-1.3-2.8-2.1-4.4-2.8c-3.2-1.2-6.4-1.3-9.1-1.1c-2.7,0.2-5,0.6-6.9,0.9c-1.9,0.4-3.3,0.7-4.2,1c-1,0.3-1.4,0.4-1.4,0.4
		s0.5-0.2,1.4-0.5c0.9-0.3,2.3-0.8,4.2-1.4c1.8-0.5,4.1-1.1,6.9-1.5c2.8-0.3,6.1-0.6,9.7,0.5c1.8,0.6,3.6,1.4,5.3,2.8
		c1.6,1.3,3,3.1,4.1,5.1c2.2,4,3.5,8.6,4.7,13.4c0.6,2.4,1.3,4.8,2.1,7.2c0.9,2.4,1.9,4.7,3.5,6.4c0.8,0.9,1.7,1.6,2.7,2.2
		c0.3,0.1,0.5,0.3,0.8,0.4c0.3,0.1,0.5,0.2,0.8,0.3l0.4,0.1c0.1,0,0.3,0.1,0.4,0.1l0.5,0.1l0.5,0.1c3,0.6,6,1.5,8.9,2.6
		c5.9,2.2,11.8,5,17.6,8.5c2.9,1.8,5.8,3.7,8.6,5.9c2.8,2.2,5.5,4.7,8,7.8c1.2,1.6,2.4,3.4,3.1,5.8c0.3,1.2,0.6,2.6,0.3,4.2
		c-0.2,1.6-1,3.1-1.9,4.3c-1,1.2-2.1,2-3.2,2.6c-0.5,0.3-1.1,0.6-1.7,0.8c-0.3,0.1-0.4,0.2-0.7,0.3l-0.4,0.2l-0.2,0.1
		c-0.5,0.2-0.9,0.5-1.2,0.8c-0.4,0.3-0.7,0.7-0.9,1.1c-0.6,0.9-0.9,2.2-1.1,3.7c-0.2,1.5-0.2,3.1-0.1,4.7c0.3,3.3,1,6.8,1.9,10.3
		c1.9,7,4.9,13.9,8.3,20.7c3.5,6.8,7.5,13.3,12.2,19.4c2.3,3,4.8,5.9,7.5,8.4c1.3,1.3,2.7,2.4,4.1,3.4l1.3,0.9
		c0.5,0.3,1,0.8,1.5,1.2c1,0.8,1.9,1.7,2.8,2.8c1.7,2,3,4.5,3.8,7.1c0.8,2.6,1,5.1,1,7.6c-0.1,4.9-1.2,9.2-2.5,13.3
		c-1.3,4.1-2.7,8-4,11.7c-0.6,1.9-1.3,3.7-1.7,5.5c-0.5,1.8-0.8,3.5-0.9,5c-0.1,1.5,0.1,2.6,0.5,3.3c0.1,0.2,0.2,0.3,0.3,0.5
		c0.1,0.1,0.1,0.2,0.2,0.2c0,0,0,0,0,0l0,0c0,0,0.1,0.1,0.1,0.1l0.3,0.2l0.1,0.1l0.6,0.5l1.2,1c3.3,2.6,6.5,5.3,9.5,8.2
		c6,5.8,11.4,12.3,15.7,19.5c2.1,3.6,3.9,7.4,5.3,11.5c1.3,4,2.2,8.3,2.1,12.8c0,2.2-0.4,4.6-1,6.8c-0.7,2.3-1.8,4.5-3.3,6.4
		c-0.2,0.2-0.4,0.5-0.6,0.7c-0.2,0.2-0.4,0.5-0.7,0.7c-0.6,0.6-0.7,0.7-1.2,1.2c-0.6,0.6-1.2,1.1-1.8,1.7c-1.2,1.2-2.4,2.5-3.5,3.8
		c-4.5,5.3-8.2,11.2-10.7,17.1c-1.2,3-2,6-2.1,8.7c0,1.3,0.2,2.5,0.6,3.4c0.4,0.9,1,1.6,1.9,2.2c0.9,0.6,2.5,1.2,4,1.9
		c1.5,0.7,3,1.3,4.4,2c2.9,1.4,5.9,2.8,8.7,4.7c1.4,1,2.7,2.1,3.9,3.5c1.2,1.4,2.2,3.1,2.6,5C499.9,434.3,499.8,436.3,499.3,438
		 M567.9,478.2c-13.8,12.8-25.9,25.2-26.7,26.6c0,0,0,0.1,0,0.1c0,0,0,0,0-0.1c7.1-25.4-10.8-26-10.5-27.2
		c0.3-1.1,23.4-15.8,19.1-35.5C562,444.8,585.7,461.8,567.9,478.2 M569,429.5c1.7,1.3,3.4,2.6,5.1,3.8c0.9,0.6,1.7,1.2,2.6,1.8
		l1.2,0.8l1.3,0.9c0.4,0.3,0.8,0.6,1.2,0.9c0.4,0.3,0.7,0.6,1.1,0.9c0.7,0.6,1.4,1.2,2.1,1.9c1.3,1.3,2.5,2.8,3.5,4.4
		c2,3.1,3.4,6.5,4.4,9.8c-3.6-4-9.3-8-17.9-12c-23.2-10.8-22.4-17.6-15.5-22.8C561.5,423.2,565.2,426.5,569,429.5"/>
</g>
<g>
	<path class="st0" d="M12-55c-1.7,0.2-3.1,1.1-4.4,2.7c-1.4,1.8-2.1,4-2.1,6.5c0,2.5,0.7,4.7,2.1,6.5c1.2,1.6,2.7,2.5,4.4,2.7v5.2
		c-3.6-0.1-6.6-1.5-9.2-4.2c-2.7-2.8-4.1-6.2-4.1-10.2c0-4,1.4-7.4,4.1-10.3c2.6-2.7,5.6-4.1,9.2-4.2V-55z M17.9-52.3
		C16.6-54,15-54.9,13.1-55v-5.3c3.6,0.1,6.7,1.5,9.3,4.2c1.3,1.4,2.3,2.9,3,4.6l-5.7,2.8C19.3-50,18.7-51.3,17.9-52.3z M22.4-35.6
		c-2.6,2.7-5.7,4.1-9.3,4.3v-5.2c1.9-0.1,3.5-1,4.8-2.7c0.7-0.8,1.2-1.8,1.5-2.8l5.6,2.9C24.3-37.9,23.5-36.7,22.4-35.6z"/>
	<path class="st0" d="M33.8-31.3h-6.6v-29h6.6V-31.3z M47-44.3c0.5,0.5,1,1.3,1.5,2.3c0.2,0.2,0.4,1.1,0.5,2.6l0.2,1l0.6,3.2
		c0.1,0.3,0.3,1,0.5,1.9c0.2,0.4,0.6,1,1.2,1.9l-6.9,0c-0.2,0-0.6-0.8-1.2-2.5c-0.1-0.2-0.5-2.1-1-5.7c-0.2-0.9-0.8-1.5-1.7-2.1
		c-0.8-0.3-2.8-0.4-5.9-0.4v-5.2h5.3c2.1-0.7,3.1-2.1,3.1-4.1v-0.5c-0.5-2.2-1.7-3.3-3.7-3.4h-4.6v-5.1h4.6c3.9,0,6.7,1.1,8.5,3.2
		c1.2,1.8,1.9,3.7,1.9,5.7v0.4c0,2.3-0.7,4.2-2,6C47.6-44.9,47.3-44.6,47-44.3z"/>
	<path class="st0" d="M59.8-31.3h-6.6v-29h6.6V-31.3z M74.5-60.3v5.3H60.9v-5.3H74.5z M73.4-49.3v5.3H61v-5.3H73.4z M74.6-36.7v5.3
		H61v-5.3H74.6z"/>
	<path class="st0" d="M92.5-60.3l10.2,28.9h-7.5l-1.9-6.2h-8l1.6-5.3h4.9v-0.1l-3-10.7h-0.1l-6.3,22.2h-5.8v-4.2L85-60.3H92.5z"/>
	<path class="st0" d="M125.6-60.2v5.3H104v-5.3H125.6z M118.3-31.4h-6.6v-22.4h6.6V-31.4z"/>
	<path class="st0" d="M134.4-31.3h-6.6v-29h6.6V-31.3z M149.1-60.3v5.3h-13.6v-5.3H149.1z M148-49.3v5.3h-12.4v-5.3H148z
		 M149.1-36.7v5.3h-13.6v-5.3H149.1z"/>
	<path class="st0" d="M157.7-31.3h-6.6v-29h6.6V-31.3z M167.1-51.5c-0.5-2.3-1.7-3.4-3.7-3.4l-4.6-0.1v-5.3h4.6
		c3.9,0,6.7,1.1,8.5,3.3c1.2,1.9,1.9,3.8,1.9,5.9v10.7c0,2-0.6,4-1.9,5.9c-1.7,2.2-4.6,3.3-8.5,3.3h-4.6v-5.3l4.6-0.1
		c2,0,3.3-1.2,3.7-3.4V-51.5z"/>
	<path class="st0" d="M194-60.3L194-60.3c4.7,0,7.7,1.7,8.9,5c0.3,0.7,0.4,1.4,0.4,2.3v0.5c0,0.7-0.2,1.4-0.5,1.9
		c-0.4,1.3-1.1,2.3-2.1,3.1l-0.9,0.5l-0.5,0.2c0.5,0.3,1,0.5,1.3,0.7c2,1.2,3.2,3,3.5,5.5c0.1,0.3,0.1,0.6,0.1,0.9
		c-0.1,1.7-0.3,2.7-0.5,3c-0.1,0.7-0.6,1.6-1.4,2.6c-1,1.4-2.7,2.3-5.2,2.9l-1.7,0.1h-0.1c-0.1,0-0.5,0-1.1,0l-6.1,0v-5.3h6.8
		c1.7-0.6,2.6-1.6,2.7-3.2v-0.8c0.1-1-0.4-1.9-1.4-2.6c-0.2-0.3-0.9-0.6-1.9-0.6l-6,0l0-5.4h6c0.2-0.1,0.6-0.1,1-0.1
		c1.2-0.5,1.8-1.5,1.8-2.9l-0.1-0.7l-0.2-0.5h-0.1c-0.5-0.8-1.4-1.2-2.4-1.3l-6.1,0l0-5.6L194-60.3z"/>
	<path class="st0" d="M206-60.3h7.2l4.3,7.3l-3.6,6.1L206-60.3z M214.2-45.4l8.7-14.9h7.2l-9.4,16v12.9h-6.6L214.2-45.4z"/>
	<path class="st0" d="M257-31.3h-2.1l-10.6-28.9h6.3l6.4,17.6V-31.3z M258.2-42.4l6.5-17.8h6.3l-10.5,28.9h-2.2V-42.4z"/>
	<path class="st0" d="M278.9-31.3h-6.6v-29h6.6V-31.3z M293.5-60.3v5.3H280v-5.3H293.5z M292.5-49.3v5.3H280v-5.3H292.5z
		 M293.6-36.7v5.3H280v-5.3H293.6z"/>
	<path class="st0" d="M308.9-55c-1.7,0.2-3.1,1.1-4.4,2.7c-1.4,1.8-2.1,4-2.1,6.5c0,2.5,0.7,4.7,2.1,6.5c1.2,1.6,2.7,2.5,4.4,2.7
		v5.2c-3.6-0.1-6.6-1.5-9.2-4.2c-2.7-2.8-4.1-6.2-4.1-10.2c0-4,1.4-7.4,4.1-10.3c2.6-2.7,5.6-4.1,9.2-4.2V-55z M314.7-52.3
		c-1.3-1.7-2.9-2.6-4.8-2.7v-5.3c3.6,0.1,6.7,1.5,9.3,4.2c1.3,1.4,2.3,2.9,3,4.6l-5.7,2.8C316.1-50,315.5-51.3,314.7-52.3z
		 M319.2-35.6c-2.6,2.7-5.7,4.1-9.3,4.3v-5.2c1.9-0.1,3.5-1,4.8-2.7c0.7-0.8,1.2-1.8,1.5-2.8l5.6,2.9
		C321.1-37.9,320.3-36.7,319.2-35.6z"/>
	<path class="st0" d="M345.5-60.2v5.3h-21.5v-5.3H345.5z M338.2-31.4h-6.6v-22.4h6.6V-31.4z"/>
	<path class="st0" d="M360.9-55c-1.7,0.2-3.1,1.1-4.4,2.7c-1.4,1.8-2.1,4-2.1,6.5c0,2.5,0.7,4.7,2.1,6.5c1.2,1.6,2.7,2.5,4.4,2.7
		v5.2c-3.6-0.1-6.6-1.5-9.2-4.2c-2.7-2.8-4.1-6.2-4.1-10.2c0-4,1.4-7.4,4.1-10.3c2.6-2.7,5.6-4.1,9.2-4.2V-55z M362-36.6
		c1.9-0.1,3.5-1,4.8-2.7c1.4-1.8,2.1-4,2.1-6.5c0-2.6-0.7-4.7-2.1-6.5c-1.3-1.7-2.9-2.6-4.8-2.7v-5.3c3.6,0.1,6.7,1.5,9.3,4.2
		c2.7,2.8,4.1,6.3,4.1,10.3c0,4-1.4,7.4-4.1,10.2c-2.6,2.7-5.7,4.1-9.3,4.3V-36.6z"/>
	<path class="st0" d="M383.9-31.3h-6.6v-29h6.6V-31.3z M397.1-44.3c0.5,0.5,1,1.3,1.5,2.3c0.2,0.2,0.4,1.1,0.5,2.6l0.2,1l0.6,3.2
		c0.1,0.3,0.3,1,0.5,1.9c0.2,0.4,0.6,1,1.2,1.9l-6.9,0c-0.2,0-0.6-0.8-1.2-2.5c-0.1-0.2-0.5-2.1-1-5.7c-0.2-0.9-0.8-1.5-1.7-2.1
		c-0.8-0.3-2.8-0.4-5.9-0.4v-5.2h5.3c2.1-0.7,3.1-2.1,3.1-4.1v-0.5c-0.5-2.2-1.7-3.3-3.7-3.4h-4.6v-5.1h4.6c3.9,0,6.7,1.1,8.5,3.2
		c1.2,1.8,1.9,3.7,1.9,5.7v0.4c0,2.3-0.7,4.2-2,6C397.7-44.9,397.4-44.6,397.1-44.3z"/>
	<path class="st0" d="M409.9-31.3h-6.6v-29h6.6V-31.3z M415.6-60.4c3.9,0,6.7,1.1,8.5,3.3c1.2,1.9,1.9,3.8,1.9,5.9v0.4
		c0,2.4-0.7,4.4-2,6.2c-1.7,2.4-5.2,3.5-10.4,3.3H411v-5.4h5.3c2.1-0.8,3.1-2.2,3.1-4.2v-0.5c-0.5-2.3-1.7-3.4-3.7-3.5H411v-5.3
		H415.6z"/>
	<path class="st0" d="M441.3-55c-1.7,0.2-3.1,1.1-4.4,2.7c-1.4,1.8-2.1,4-2.1,6.5c0,2.5,0.7,4.7,2.1,6.5c1.2,1.6,2.7,2.5,4.4,2.7
		v5.2c-3.6-0.1-6.6-1.5-9.2-4.2c-2.7-2.8-4.1-6.2-4.1-10.2c0-4,1.4-7.4,4.1-10.3c2.6-2.7,5.6-4.1,9.2-4.2V-55z M442.3-36.6
		c1.9-0.1,3.5-1,4.8-2.7c1.4-1.8,2.1-4,2.1-6.5c0-2.6-0.7-4.7-2.1-6.5c-1.3-1.7-2.9-2.6-4.8-2.7v-5.3c3.6,0.1,6.7,1.5,9.3,4.2
		c2.7,2.8,4.1,6.3,4.1,10.3c0,4-1.4,7.4-4.1,10.2c-2.6,2.7-5.7,4.1-9.3,4.3V-36.6z"/>
	<path class="st0" d="M464.2-31.3h-6.6v-29h6.6V-31.3z M477.4-44.3c0.5,0.5,1,1.3,1.5,2.3c0.2,0.2,0.4,1.1,0.5,2.6l0.2,1l0.6,3.2
		c0.1,0.3,0.3,1,0.5,1.9c0.2,0.4,0.6,1,1.2,1.9l-6.9,0c-0.2,0-0.6-0.8-1.2-2.5c-0.1-0.2-0.5-2.1-1-5.7c-0.2-0.9-0.8-1.5-1.7-2.1
		c-0.8-0.3-2.8-0.4-5.9-0.4v-5.2h5.3c2.1-0.7,3.1-2.1,3.1-4.1v-0.5c-0.5-2.2-1.7-3.3-3.7-3.4h-4.6v-5.1h4.6c3.9,0,6.7,1.1,8.5,3.2
		c1.2,1.8,1.9,3.7,1.9,5.7v0.4c0,2.3-0.7,4.2-2,6C478-44.9,477.8-44.6,477.4-44.3z"/>
	<path class="st0" d="M505.2-60.2v5.3h-21.5v-5.3H505.2z M497.9-31.4h-6.6v-22.4h6.6V-31.4z"/>
	<path class="st0" d="M523.3-60.3l10.2,28.9h-7.5l-1.9-6.2h-8l1.6-5.3h4.9v-0.1l-3-10.7h-0.1l-6.3,22.2h-5.9v-4.2l8.4-24.7H523.3z"
		/>
	<path class="st0" d="M541.5-31.3h-6.6v-29h6.6V-31.3z M556.4-36.7v5.3h-13.6v-5.3H556.4z"/>
	<path class="st0" d="M565.2-36.7v5.3h-6.6v-5.3H565.2z"/>
	<path class="st0" d="M580.5-55c-1.7,0.2-3.1,1.1-4.4,2.7c-1.4,1.8-2.1,4-2.1,6.5c0,2.5,0.7,4.7,2.1,6.5c1.2,1.6,2.7,2.5,4.4,2.7
		v5.2c-3.6-0.1-6.6-1.5-9.2-4.2c-2.7-2.8-4.1-6.2-4.1-10.2c0-4,1.4-7.4,4.1-10.3c2.6-2.7,5.6-4.1,9.2-4.2V-55z M586.3-52.3
		c-1.3-1.7-2.9-2.6-4.8-2.7v-5.3c3.6,0.1,6.7,1.5,9.3,4.2c1.3,1.4,2.3,2.9,3,4.6l-5.7,2.8C587.8-50,587.2-51.3,586.3-52.3z
		 M590.8-35.6c-2.6,2.7-5.7,4.1-9.3,4.3v-5.2c1.9-0.1,3.5-1,4.8-2.7c0.7-0.8,1.2-1.8,1.5-2.8l5.6,2.9
		C592.8-37.9,591.9-36.7,590.8-35.6z"/>
	<path class="st0" d="M608.9-55c-1.7,0.2-3.1,1.1-4.4,2.7c-1.4,1.8-2.1,4-2.1,6.5c0,2.5,0.7,4.7,2.1,6.5c1.2,1.6,2.7,2.5,4.4,2.7
		v5.2c-3.6-0.1-6.6-1.5-9.2-4.2c-2.7-2.8-4-6.2-4-10.2c0-4,1.3-7.4,4-10.3c2.6-2.7,5.6-4.1,9.2-4.2V-55z M609.9-36.6
		c1.9-0.1,3.5-1,4.8-2.7c1.4-1.8,2.1-4,2.1-6.5c0-2.6-0.7-4.7-2.1-6.5c-1.3-1.7-2.9-2.6-4.8-2.7v-5.3c3.6,0.1,6.7,1.5,9.3,4.2
		c2.7,2.8,4.1,6.3,4.1,10.3c0,4-1.4,7.4-4.1,10.2c-2.6,2.7-5.7,4.1-9.3,4.3V-36.6z"/>
	<path class="st0" d="M631.8-31.3h-6.6v-27.2l6.6,11V-31.3z M641.3-33.3l-16-26.9h6.3l9.8,16.4V-33.3z M642.9-43.9l9.8-16.4h6.3
		l-16,26.9V-43.9z M652.1-47.5l6.6-11v27.2h-6.6V-47.5z"/>
</g>
<g>
	<path class="st0" d="M8.8-21.8c-1,0.1-1.9,0.7-2.7,1.6c-0.9,1.1-1.3,2.4-1.3,4c0,1.6,0.4,2.9,1.3,4c0.8,1,1.7,1.5,2.7,1.7v3.2
		c-2.2-0.1-4.1-1-5.6-2.6c-1.7-1.7-2.5-3.8-2.5-6.3c0-2.5,0.8-4.6,2.5-6.3c1.6-1.6,3.5-2.5,5.6-2.6V-21.8z M9.5-10.5
		c1.1-0.1,2.1-0.6,3-1.7c0.9-1.1,1.3-2.4,1.3-4c0-1.6-0.4-2.9-1.3-4c-0.8-1-1.8-1.6-3-1.7v-3.3c2.2,0.1,4.1,0.9,5.7,2.6
		c1.7,1.7,2.5,3.8,2.5,6.3c0,2.5-0.8,4.6-2.5,6.3c-1.6,1.7-3.5,2.5-5.7,2.6V-10.5z"/>
	<path class="st0" d="M30.4-7.3h-4v-17.8h4V-7.3z M38.5-15.3c0.3,0.3,0.6,0.8,0.9,1.4c0.1,0.1,0.2,0.7,0.3,1.6l0.1,0.6l0.4,2
		c0.1,0.2,0.2,0.6,0.3,1.2c0.1,0.2,0.4,0.6,0.8,1.2l-4.2,0c-0.1,0-0.4-0.5-0.8-1.5c-0.1-0.1-0.3-1.3-0.6-3.5c-0.1-0.5-0.5-1-1-1.3
		c-0.5-0.2-1.7-0.3-3.6-0.3v-3.2h3.2c1.3-0.4,1.9-1.3,1.9-2.5v-0.3c-0.3-1.3-1-2-2.3-2.1H31v-3.2h2.9c2.4,0,4.1,0.6,5.2,1.9
		c0.8,1.1,1.1,2.3,1.1,3.5v0.2c0,1.4-0.4,2.6-1.2,3.7C38.9-15.6,38.7-15.5,38.5-15.3z"/>
	<path class="st0" d="M53.8-7.3h-4v-17.8h4V-7.3z"/>
	<path class="st0" d="M70.6-21.8c-1,0.1-1.9,0.7-2.7,1.6c-0.9,1.1-1.3,2.4-1.3,4c0,1.6,0.4,2.9,1.3,4c0.8,1,1.7,1.5,2.7,1.7v3.2
		c-2.2-0.1-4.1-1-5.6-2.6c-1.7-1.7-2.5-3.8-2.5-6.3c0-2.5,0.8-4.6,2.5-6.3c1.6-1.6,3.5-2.5,5.6-2.6V-21.8z M79.5-16
		c0,2.4-0.9,4.4-2.5,6.1c-1.6,1.7-3.5,2.5-5.7,2.6v-3.2c1.1-0.1,2.1-0.6,3-1.7c0.1-0.2,0.3-0.4,0.4-0.5h-3.4V-16H79.5z M74.2-20.2
		c-0.8-1-1.8-1.6-3-1.7v-3.3c2.2,0.1,4.1,0.9,5.7,2.6c0.8,0.9,1.4,1.8,1.8,2.8L75.3-18C75.1-18.8,74.7-19.5,74.2-20.2z"/>
	<path class="st0" d="M92.2-7.3h-4v-17.8h4V-7.3z"/>
	<path class="st0" d="M104.9-7.3h-4V-24l4,6.7V-7.3z M111.4-7.3l-10.6-17.8h3.8l10.6,17.8L111.4-7.3z M111.3-25.1h4v16.7l-4-6.7
		V-25.1z"/>
	<path class="st0" d="M133.9-25.1l6.3,17.8h-4.6l-1.2-3.8h-4.9l1-3.3h3v-0.1l-1.8-6.5h-0.1l-3.8,13.7h-3.6v-2.6l5.2-15.2H133.9z"/>
	<path class="st0" d="M152.5-7.3h-4v-17.8h4V-7.3z M161.7-10.6v3.3h-8.3v-3.3H161.7z"/>
	<path class="st0" d="M189.4-7.3h-4v-17.8h4V-7.3z M198.4-25.1v3.3H190v-3.3H198.4z M197.7-18.3v3.3h-7.7v-3.3H197.7z"/>
	<path class="st0" d="M211.1-7.3h-4v-17.8h4V-7.3z M219.2-15.3c0.3,0.3,0.6,0.8,0.9,1.4c0.1,0.1,0.2,0.7,0.3,1.6l0.1,0.6l0.4,2
		c0.1,0.2,0.2,0.6,0.3,1.2c0.1,0.2,0.4,0.6,0.8,1.2l-4.2,0c-0.1,0-0.4-0.5-0.8-1.5c-0.1-0.1-0.3-1.3-0.6-3.5c-0.1-0.5-0.5-1-1-1.3
		c-0.5-0.2-1.7-0.3-3.6-0.3v-3.2h3.2c1.3-0.4,1.9-1.3,1.9-2.5v-0.3c-0.3-1.3-1-2-2.3-2.1h-2.9v-3.2h2.9c2.4,0,4.1,0.6,5.2,1.9
		c0.8,1.1,1.1,2.3,1.1,3.5v0.2c0,1.4-0.4,2.6-1.2,3.7C219.5-15.6,219.4-15.5,219.2-15.3z"/>
	<path class="st0" d="M234.5-7.3h-4v-17.8h4V-7.3z M243.5-25.1v3.3h-8.3v-3.3H243.5z M242.9-18.3v3.3h-7.6v-3.3H242.9z M243.6-10.6
		v3.3h-8.3v-3.3H243.6z"/>
	<path class="st0" d="M256.3-7.3h-4v-17.8h4V-7.3z M265.3-25.1v3.3H257v-3.3H265.3z M264.7-18.3v3.3H257v-3.3H264.7z M265.3-10.6
		v3.3H257v-3.3H265.3z"/>
	<path class="st0" d="M296.7-7.3h-1.3l-6.5-17.8h3.8l3.9,10.8V-7.3z M297.5-14.1l4-10.9h3.8l-6.5,17.8h-1.4V-14.1z"/>
	<path class="st0" d="M317.6-7.3h-4v-17.8h4V-7.3z M326.6-25.1v3.3h-8.3v-3.3H326.6z M325.9-18.3v3.3h-7.7v-3.3H325.9z M326.6-10.6
		v3.3h-8.3v-3.3H326.6z"/>
	<path class="st0" d="M343.5-21.8c-1,0.1-1.9,0.7-2.7,1.6c-0.9,1.1-1.3,2.4-1.3,4c0,1.6,0.4,2.9,1.3,4c0.8,1,1.7,1.5,2.7,1.7v3.2
		c-2.2-0.1-4.1-1-5.6-2.6c-1.7-1.7-2.5-3.8-2.5-6.3c0-2.5,0.8-4.6,2.5-6.3c1.6-1.6,3.5-2.5,5.6-2.6V-21.8z M347-20.2
		c-0.8-1-1.8-1.6-3-1.7v-3.3c2.2,0.1,4.1,0.9,5.7,2.6c0.8,0.9,1.4,1.8,1.8,2.8l-3.5,1.7C347.9-18.8,347.6-19.5,347-20.2z M349.8-9.9
		c-1.6,1.7-3.5,2.5-5.7,2.6v-3.2c1.2-0.1,2.1-0.6,3-1.7c0.4-0.5,0.7-1.1,0.9-1.7l3.4,1.8C351-11.3,350.5-10.6,349.8-9.9z"/>
	<path class="st0" d="M373.4-25v3.3h-13.2V-25H373.4z M368.9-7.3h-4v-13.8h4V-7.3z"/>
	<path class="st0" d="M390.3-21.8c-1,0.1-1.9,0.7-2.7,1.6c-0.9,1.1-1.3,2.4-1.3,4c0,1.6,0.4,2.9,1.3,4c0.8,1,1.7,1.5,2.7,1.7v3.2
		c-2.2-0.1-4.1-1-5.6-2.6c-1.7-1.7-2.5-3.8-2.5-6.3c0-2.5,0.8-4.6,2.5-6.3c1.6-1.6,3.5-2.5,5.6-2.6V-21.8z M391-10.5
		c1.1-0.1,2.1-0.6,3-1.7c0.9-1.1,1.3-2.4,1.3-4c0-1.6-0.4-2.9-1.3-4c-0.8-1-1.8-1.6-3-1.7v-3.3c2.2,0.1,4.1,0.9,5.7,2.6
		c1.7,1.7,2.5,3.8,2.5,6.3c0,2.5-0.8,4.6-2.5,6.3c-1.6,1.7-3.5,2.5-5.7,2.6V-10.5z"/>
	<path class="st0" d="M411.9-7.3h-4v-17.8h4V-7.3z M420-15.3c0.3,0.3,0.6,0.8,0.9,1.4c0.1,0.1,0.2,0.7,0.3,1.6l0.1,0.6l0.4,2
		c0.1,0.2,0.2,0.6,0.3,1.2c0.1,0.2,0.4,0.6,0.8,1.2l-4.2,0c-0.1,0-0.4-0.5-0.8-1.5c-0.1-0.1-0.3-1.3-0.6-3.5c-0.1-0.5-0.5-1-1-1.3
		c-0.5-0.2-1.7-0.3-3.6-0.3v-3.2h3.2c1.3-0.4,1.9-1.3,1.9-2.5v-0.3c-0.3-1.3-1-2-2.3-2.1h-2.8v-3.2h2.8c2.4,0,4.1,0.6,5.2,1.9
		c0.8,1.1,1.1,2.3,1.1,3.5v0.2c0,1.4-0.4,2.6-1.2,3.7C420.4-15.6,420.2-15.5,420-15.3z"/>
	<path class="st0" d="M435.8-11.3c0.8,0.4,1.5,0.7,2.2,0.8l0.4,0.1l0,3.2c-2.2,0.1-3.8-0.4-5-1.3c-1.3-0.8-2-2.3-2.1-4.3l3.7-0.4
		C435.1-12.4,435.4-11.8,435.8-11.3L435.8-11.3z M437.2-14.9c-3.6-0.6-5.4-2.3-5.4-5v-0.2c0-2.8,1.8-4.4,5.4-4.9l1.1,0l0,3
		c-0.8,0.1-1.4,0.2-1.7,0.3c-0.7,0.3-1,0.8-1,1.7c0,0.8,1,1.4,3.1,1.8c0.5,0.1,0.9,0.2,1.3,0.3c3.7,0.6,5.5,2.4,5.5,5.3v0.2
		c0,3-1.8,4.7-5.4,5.2l-1.2,0v-3.1c0.9-0.1,1.5-0.2,1.8-0.3c0.7-0.3,1-0.9,1-1.8c0-0.9-1-1.6-3.1-2
		C438.2-14.7,437.7-14.8,437.2-14.9L437.2-14.9z M439-25.1c1.8,0,3.3,0.5,4.7,1.5c0.8,0.7,1.4,1.9,1.7,3.7v0.2l-2,0.2l-1.7,0.1
		c-0.2-1-0.4-1.6-0.8-1.9c-0.3-0.3-1-0.5-1.9-0.8L439-25.1z"/>
	<path class="st0" d="M466.3-11.3c0.8,0.4,1.5,0.7,2.2,0.8l0.4,0.1l0,3.2c-2.2,0.1-3.8-0.4-5-1.3c-1.3-0.8-2-2.3-2.1-4.3l3.7-0.4
		C465.6-12.4,465.9-11.8,466.3-11.3L466.3-11.3z M467.6-14.9c-3.6-0.6-5.4-2.3-5.4-5v-0.2c0-2.8,1.8-4.4,5.4-4.9l1.1,0l0,3
		c-0.8,0.1-1.4,0.2-1.7,0.3c-0.7,0.3-1,0.8-1,1.7c0,0.8,1,1.4,3.1,1.8c0.5,0.1,0.9,0.2,1.3,0.3c3.7,0.6,5.5,2.4,5.5,5.3v0.2
		c0,3-1.8,4.7-5.4,5.2l-1.2,0v-3.1c0.9-0.1,1.4-0.2,1.8-0.3c0.7-0.3,1-0.9,1-1.8c0-0.9-1-1.6-3.1-2
		C468.7-14.7,468.2-14.8,467.6-14.9L467.6-14.9z M469.4-25.1c1.8,0,3.3,0.5,4.7,1.5c0.8,0.7,1.4,1.9,1.7,3.7v0.2l-2,0.2l-1.7,0.1
		c-0.2-1-0.4-1.6-0.8-1.9c-0.3-0.3-1-0.5-1.9-0.8L469.4-25.1z"/>
	<path class="st0" d="M488.8-7.3h-4v-17.8h4V-7.3z"/>
	<path class="st0" d="M501.5-7.3h-4V-24l4,6.7V-7.3z M508.1-7.3l-10.6-17.8h3.8l10.6,17.8L508.1-7.3z M507.9-25.1h4v16.7l-4-6.7
		V-25.1z"/>
	<path class="st0" d="M528.9-21.8c-1,0.1-1.9,0.7-2.7,1.6c-0.9,1.1-1.3,2.4-1.3,4c0,1.6,0.4,2.9,1.3,4c0.8,1,1.7,1.5,2.7,1.7v3.2
		c-2.2-0.1-4.1-1-5.6-2.6c-1.7-1.7-2.5-3.8-2.5-6.3c0-2.5,0.8-4.6,2.5-6.3c1.6-1.6,3.5-2.5,5.6-2.6V-21.8z M532.5-20.2
		c-0.8-1-1.8-1.6-3-1.7v-3.3c2.2,0.1,4.1,0.9,5.7,2.6c0.8,0.9,1.4,1.8,1.8,2.8l-3.5,1.7C533.3-18.8,533-19.5,532.5-20.2z M535.2-9.9
		c-1.6,1.7-3.5,2.5-5.7,2.6v-3.2c1.2-0.1,2.1-0.6,3-1.7c0.4-0.5,0.7-1.1,0.9-1.7l3.4,1.8C536.4-11.3,535.9-10.6,535.2-9.9z"/>
	<path class="st0" d="M549.6-7.3h-4v-17.8h4V-7.3z M558.7-25.1v3.3h-8.3v-3.3H558.7z M558-18.3v3.3h-7.7v-3.3H558z M558.7-10.6v3.3
		h-8.3v-3.3H558.7z"/>
	<path class="st0" d="M582.2-10.7v-0.5c0-2.9,1.9-4.8,5.7-5.9c0.3-0.1,0.8-0.2,1.3-0.3c2-0.6,3-1.5,3-2.8c0-0.9-0.3-1.4-1-1.7
		c-0.3-0.1-0.9-0.2-1.7-0.3l0-3l1.1,0c3.6,0.5,5.4,2.1,5.4,4.9v0.2c0,2.7-1.7,4.7-5.2,6c-0.5,0.1-1,0.2-1.5,0.3
		c-2.2,0.6-3.3,1.5-3.2,2.6l0,3.7h-3.9V-10.7z M586.5-21.3c-0.4,0.4-0.7,1-0.7,1.8l-3.5-0.3c0.1-1.9,0.7-3.2,1.9-4
		c1.1-0.9,2.7-1.3,4.7-1.2l0,3l-0.3,0.1C587.9-22,587.2-21.8,586.5-21.3L586.5-21.3z M596.1-10.6v3.3h-9.4v-3.3H596.1z"/>
	<path class="st0" d="M610.3-21.7c-1,0.1-1.6,0.8-1.8,2v6.5c0,1.2,0.6,2.1,1.8,2.5v3.4c-2-0.1-3.4-0.7-4.2-1.6
		c-1.1-1.3-1.6-2.7-1.6-4.2v-6.4c0-1.3,0.4-2.5,1.1-3.6l-0.1-0.1v-0.1l0.1,0.1c1-1.2,2.6-1.9,4.8-1.9V-21.7z M611.2-25.1
		c2.2,0.1,3.7,0.7,4.8,1.9l0.1-0.1v0.1l-0.1,0.1c0.8,1.2,1.1,2.4,1.1,3.6v6.4c0,1.4-0.5,2.8-1.6,4.2c-0.8,0.9-2.2,1.4-4.2,1.6v-3.4
		c1.2-0.4,1.8-1.3,1.8-2.5v-6.5c-0.2-1.2-0.9-1.9-1.8-2V-25.1z"/>
	<path class="st0" d="M631.7-21.7c-1,0.1-1.6,0.8-1.8,2v6.5c0,1.2,0.6,2.1,1.8,2.5v3.4c-2-0.1-3.4-0.7-4.2-1.6
		c-1.1-1.3-1.6-2.7-1.6-4.2v-6.4c0-1.3,0.4-2.5,1.1-3.6l-0.1-0.1v-0.1l0.1,0.1c1-1.2,2.6-1.9,4.7-1.9V-21.7z M632.6-25.1
		c2.2,0.1,3.7,0.7,4.8,1.9l0.1-0.1v0.1l-0.1,0.1c0.8,1.2,1.1,2.4,1.1,3.6v6.4c0,1.4-0.5,2.8-1.6,4.2c-0.8,0.9-2.2,1.4-4.2,1.6v-3.4
		c1.2-0.4,1.8-1.3,1.8-2.5v-6.5c-0.2-1.2-0.9-1.9-1.8-2V-25.1z"/>
	<path class="st0" d="M647.2-21.8v-3.3h13.8v3.3H647.2z M651.5-11c0.7,0.4,1.4,0.7,2,0.7l0.3,0.1l0,3c-2,0.1-3.6-0.4-4.7-1.2
		c-1.2-0.8-1.9-2.1-1.9-4l3.5-0.3C650.8-12,651.1-11.4,651.5-11L651.5-11z M651.2-21.3c-0.2,1.8,0.8,2.7,2.8,2.8
		c0.7,0,1.4,0.1,2.2,0.4c3.2,1.1,4.9,2.9,4.9,5.6v0.2c0,2.8-1.8,4.4-5.4,4.9l-1.1,0l0-3c0.8-0.1,1.4-0.2,1.7-0.3
		c0.7-0.2,1-0.8,1-1.7c0-1.3-0.8-2.2-2.7-2.8c-0.7-0.1-1.4-0.2-2-0.3c-3.6-0.3-5.4-2.2-5.2-5.9L651.2-21.3z"/>
</g>
</svg>
